<svg width="40" height="40" viewBox="0 0 40 40" fill="none" xmlns="http://www.w3.org/2000/svg">
<mask id="mask0_100_4276" style="mask-type:luminance" maskUnits="userSpaceOnUse" x="0" y="0" width="40" height="40">
<path d="M0 20C0 8.95467 8.95467 0 20 0C31.0453 0 40 8.95467 40 20C40 31.0453 31.0453 40 20 40C8.95467 40 0 31.0453 0 20Z" fill="white"/>
</mask>
<g mask="url(#mask0_100_4276)">
<path d="M0 20C0 8.95467 8.95467 0 20 0C31.0453 0 40 8.95467 40 20C40 31.0453 31.0453 40 20 40C8.95467 40 0 31.0453 0 20Z" fill="#1A4A7F"/>
<path d="M48.9079 2.56353C50.0088 3.31626 50.7842 4.4575 51.0786 5.7582C51.3691 7.04143 51.1863 8.38642 50.5637 9.54552C49.9412 10.7046 48.9209 11.5998 47.6906 12.0662L46.8253 39.4422C45.8813 42.2542 34.4933 43.7969 31.6706 42.8889C31.0012 42.6757 30.381 42.3313 29.8463 41.8757C29.3115 41.4201 28.8729 40.8625 28.5561 40.2355C28.2393 39.6085 28.0507 38.9246 28.0012 38.2239C27.9517 37.5231 28.0424 36.8195 28.2679 36.1542L31.6746 26.0169L-15.6534 69.4529L-23.1841 61.2462L24.1133 17.8395L13.8039 20.3449C13.1217 20.5126 12.413 20.5427 11.719 20.4334C11.0251 20.3241 10.3599 20.0776 9.76228 19.7083C9.16468 19.339 8.64668 18.8543 8.23855 18.2825C7.83041 17.7108 7.54033 17.0634 7.38525 16.3782C7.06927 14.9841 7.31316 13.5217 8.06447 12.3055C8.81578 11.0894 10.0145 10.2168 11.4026 9.87553L39.4346 3.06353C40.0108 1.88873 40.9899 0.960012 42.1935 0.446567C43.3971 -0.0668779 44.7451 -0.130887 45.9919 0.266201C47.2099 0.654544 48.2459 1.46987 48.9079 2.56353Z" fill="url(#paint0_linear_100_4276)"/>
</g>
<defs>
<linearGradient id="paint0_linear_100_4276" x1="49.0626" y1="2.52887" x2="-19.4041" y2="65.3635" gradientUnits="userSpaceOnUse">
<stop stop-color="#FFB800"/>
<stop offset="1" stop-color="#FFF11D"/>
</linearGradient>
</defs>
</svg>
