<svg width="32" height="32" viewBox="0 0 32 32" fill="none" xmlns="http://www.w3.org/2000/svg">
<path d="M0 5C0 2.23858 2.23858 0 5 0H27C29.7614 0 32 2.23858 32 5V27C32 29.7614 29.7614 32 27 32H5C2.23858 32 0 29.7614 0 27V5Z" fill="#4D3EDB"/>
<path d="M4 15.52C4 10.088 4 7.376 5.68 5.68C7.384 4 10.096 4 15.52 4H16.48C21.912 4 24.624 4 26.32 5.68C28 7.384 28 10.096 28 15.52V16.48C28 21.912 28 24.624 26.32 26.32C24.616 28 21.904 28 16.48 28H15.52C10.088 28 7.376 28 5.68 26.32C4 24.616 4 21.904 4 16.48V15.52Z" fill="#4D3EDB"/>
<path d="M16.7679 21.2889C11.2959 21.2889 8.17585 17.5449 8.04785 11.3049H10.7999C10.8879 15.8809 12.9039 17.8169 14.5039 18.2169V11.3049H17.0879V15.2489C18.6639 15.0809 20.3279 13.2809 20.8879 11.2969H23.4639C23.2538 12.3239 22.8342 13.2966 22.2313 14.1541C21.6284 15.0116 20.8552 15.7356 19.9599 16.2809C20.959 16.7782 21.8414 17.4816 22.5488 18.3449C23.2562 19.2081 23.7726 20.2115 24.0639 21.2889H21.2239C20.6159 19.3929 19.0959 17.9209 17.0879 17.7209V21.2889H16.7759H16.7679Z" fill="white"/>
</svg>
