<svg width="40" height="40" viewBox="0 0 40 40" fill="none" xmlns="http://www.w3.org/2000/svg">
<circle cx="20" cy="20" r="20" fill="#0277FF"/>
<path d="M26.022 20.4875C26.4543 20.7026 26.8729 20.9513 27.2747 21.2288C28 21.73 28.6573 22.3089 29.2527 22.9585C30.0465 23.8246 30.6978 24.7879 31.2098 25.8459C31.5335 26.5149 31.7898 27.2092 31.9926 27.9239C32.0083 27.9787 32.003 27.9995 31.9375 27.9995C30.5676 27.9977 29.1976 27.9975 27.8277 28C27.755 28.0002 27.7423 27.9622 27.7251 27.9093C27.4247 26.9878 26.9942 26.1331 26.4051 25.3623C25.5109 24.1925 24.3852 23.3436 22.9714 22.8984C22.5749 22.7735 22.169 22.6942 21.7571 22.6432C21.7083 22.6372 21.6935 22.6525 21.6978 22.6982C21.6999 22.7214 21.6981 22.745 21.6981 22.7686C21.6981 24.4742 21.6981 26.18 21.6981 27.8857C21.6981 27.9981 21.6981 27.9977 21.5843 27.9981C21.037 28.0005 20.4898 27.9912 19.9441 27.9478C17.8744 27.7826 15.9226 27.2361 14.146 26.1331C13.3092 25.6136 12.5553 24.9914 11.8829 24.2706C10.5768 22.8707 9.67591 21.2333 9.05587 19.4322C8.72161 18.4611 8.48045 17.4664 8.31323 16.4532C8.19994 15.7657 8.11897 15.0751 8.06715 14.3805C8.03554 13.9568 8.02148 13.5325 8.00058 13.1083C7.99654 13.0267 8.01182 12.9998 8.10123 13C9.40682 13.0033 10.7124 13.0028 12.0178 13.0009C12.086 13.0007 12.1111 13.0107 12.1125 13.0888C12.1234 13.698 12.1633 14.3054 12.2304 14.9112C12.3512 16.0033 12.5657 17.0748 12.9166 18.1171C13.2219 19.0238 13.6239 19.8836 14.1656 20.6745C14.7962 21.5951 15.5677 22.3667 16.5504 22.9112C16.9036 23.1069 17.2744 23.2613 17.6649 23.3677C17.7423 23.3888 17.7594 23.3741 17.759 23.2967C17.7567 22.6666 17.7578 22.0365 17.7578 21.4064C17.7578 18.6456 17.7578 15.8848 17.758 13.124C17.758 12.9803 17.7441 13.003 17.8786 13.0028C19.117 13.0021 20.3551 13.0033 21.5934 13.0005C21.6765 13.0004 21.7 13.0183 21.6999 13.105C21.6971 15.0129 21.6978 16.9209 21.6978 18.8288C21.6978 18.9398 21.6974 18.9366 21.8098 18.9196C22.6524 18.7907 23.3796 18.4069 24.0439 17.8929C25.0649 17.1029 25.8395 16.1069 26.448 14.9752C26.7752 14.3666 27.035 13.7303 27.2203 13.0642C27.2331 13.0181 27.2523 13.0011 27.3034 13.0012C28.5533 13.003 29.8032 13.0026 31.0533 13.0028C31.0703 13.0028 31.0875 13.006 31.1249 13.0097C30.4703 16.2235 28.7063 18.6646 26.022 20.4875Z" fill="#FEFEFF"/>
</svg>
