<svg width="1530" height="123" viewBox="0 0 1530 123" fill="none" xmlns="http://www.w3.org/2000/svg">
<g opacity="0.5" filter="url(#filter0_i_2006_711)">
<path d="M1532.13 135.015V135.015C1532.13 123.981 1528.49 113.256 1521.77 104.503L1495.37 70.1236C1451.82 13.3924 1378.51 -11.7089 1309.33 6.42271L1185.62 38.8425C1117.93 56.5838 1046.59 54.7804 979.881 33.6413L966.952 29.5444C883.751 3.18023 794.376 3.57342 711.41 30.6687L601.77 66.4751C498.812 100.099 388.302 103.081 283.681 75.0574L177.105 46.5102C150.196 39.3025 121.845 39.4535 95.0149 46.9474L16.0056 69.0151C-2.98544 74.3194 -16.2771 91.415 -16.7363 111.128V111.128C-17.3127 135.868 2.27578 156.39 27.0157 156.967L1473.82 190.672C1505.29 191.406 1531.39 166.487 1532.13 135.015V135.015Z" fill="url(#paint0_linear_2006_711)" fill-opacity="0.2"/>
</g>
<defs>
<filter id="filter0_i_2006_711" x="-16.749" y="0.607727" width="1548.88" height="194.081" filterUnits="userSpaceOnUse" color-interpolation-filters="sRGB">
<feFlood flood-opacity="0" result="BackgroundImageFix"/>
<feBlend mode="normal" in="SourceGraphic" in2="BackgroundImageFix" result="shape"/>
<feColorMatrix in="SourceAlpha" type="matrix" values="0 0 0 0 0 0 0 0 0 0 0 0 0 0 0 0 0 0 127 0" result="hardAlpha"/>
<feOffset dy="4"/>
<feGaussianBlur stdDeviation="20"/>
<feComposite in2="hardAlpha" operator="arithmetic" k2="-1" k3="1"/>
<feColorMatrix type="matrix" values="0 0 0 0 1 0 0 0 0 1 0 0 0 0 1 0 0 0 0.8 0"/>
<feBlend mode="normal" in2="shape" result="effect1_innerShadow_2006_711"/>
</filter>
<linearGradient id="paint0_linear_2006_711" x1="766.322" y1="47.067" x2="766.322" y2="351.517" gradientUnits="userSpaceOnUse">
<stop stop-color="#003B98"/>
<stop offset="1" stop-color="#4D3EDB"/>
</linearGradient>
</defs>
</svg>
