<svg width="209" height="56" viewBox="0 0 209 56" fill="none" xmlns="http://www.w3.org/2000/svg">
<g clip-path="url(#clip0_100_4484)">
<path d="M26.3692 53.5293H5.73284C3.05424 53.5293 1.05225 53.8515 1.05225 54.5474C1.05225 55.2434 3.04961 55.7151 5.73284 55.7151H26.3692C29.0524 55.7151 31.0497 55.248 31.0497 54.5474C31.0497 53.8469 29.0477 53.5293 26.3692 53.5293Z" fill="#DADBDC"/>
<path d="M26.3691 56H5.73281C4.90328 56 0.769531 55.9299 0.769531 54.5475C0.769531 53.6834 2.43786 53.2444 5.73281 53.2444H26.3691C29.6641 53.2444 31.3324 53.6834 31.3324 54.5475C31.3324 55.9299 27.1987 56 26.3691 56ZM5.73281 53.8142C2.41469 53.8142 1.33491 54.3093 1.33491 54.5475C1.33491 54.7857 2.6603 55.4302 5.73281 55.4302H26.3691C29.4416 55.4302 30.767 54.8464 30.767 54.5475C30.767 54.2485 29.6919 53.8142 26.3691 53.8142H5.73281Z" fill="white"/>
<path fill-rule="evenodd" clip-rule="evenodd" d="M1.32568 45.8589C1.32568 45.8589 11.5581 28.377 11.8037 27.952C11.9827 27.7034 12.0681 27.3988 12.0447 27.0926V21.488C12.0447 21.0536 11.5813 21.0536 11.5813 21.0536C10.9182 21.0536 10.2823 20.7881 9.81338 20.3156C9.3445 19.843 9.0811 19.2021 9.0811 18.5338C9.0811 17.8655 9.3445 17.2246 9.81338 16.7521C10.2823 16.2795 10.9182 16.0141 11.5813 16.0141H20.5532C20.8899 15.9994 21.2262 16.0536 21.5416 16.1734C21.857 16.2932 22.1451 16.4761 22.3885 16.7111C22.632 16.9461 22.8257 17.2283 22.958 17.5408C23.0904 17.8532 23.1586 18.1894 23.1586 18.5292C23.1586 18.8689 23.0904 19.2051 22.958 19.5175C22.8257 19.83 22.632 20.1122 22.3885 20.3472C22.1451 20.5822 21.857 20.7651 21.5416 20.8849C21.2262 21.0047 20.8899 21.0589 20.5532 21.0442C20.5532 21.0442 20.0898 21.0443 20.0898 21.4786V27.0833C20.0667 27.3895 20.1521 27.6939 20.3307 27.9427L30.8134 45.8496C31.4546 46.8511 31.809 48.0115 31.8376 49.203C31.8376 50.5805 31.2946 51.9015 30.3282 52.8755C29.3618 53.8495 28.051 54.3967 26.6843 54.3967H5.4548C4.77767 54.3973 4.10706 54.2634 3.48129 54.0027C2.85553 53.742 2.2869 53.3595 1.80789 52.8772C1.32887 52.3948 0.948853 51.8221 0.689587 51.1917C0.43032 50.5612 0.296875 49.8855 0.296875 49.203C0.327561 48.0141 0.683595 46.8568 1.32568 45.8589Z" fill="#CED7E1"/>
<path d="M26.6518 54.7156H5.45475C4.00807 54.7144 2.62093 54.135 1.59754 53.1044C0.574149 52.0739 -0.00194097 50.6764 -0.00439453 49.2184C0.0245021 47.9735 0.395042 46.761 1.06612 45.7154C1.16807 45.538 11.3032 28.2289 11.5488 27.8039C11.6945 27.6117 11.7653 27.3725 11.7481 27.1313V21.4939C11.7481 21.3772 11.6229 21.3632 11.5673 21.3632C10.8262 21.3632 10.1154 21.0664 9.59135 20.5383C9.06729 20.0101 8.77287 19.2938 8.77287 18.5468C8.77287 17.7999 9.06729 17.0835 9.59135 16.5554C10.1154 16.0272 10.8262 15.7305 11.5673 15.7305H20.5392C21.2804 15.7305 21.9911 16.0272 22.5152 16.5554C23.0393 17.0835 23.3337 17.7999 23.3337 18.5468C23.3337 19.2938 23.0393 20.0101 22.5152 20.5383C21.9911 21.0664 21.2804 21.3632 20.5392 21.3632C20.4187 21.3632 20.3585 21.4099 20.3585 21.4939V27.0986C20.3387 27.3502 20.4095 27.6005 20.5578 27.8039L31.0451 45.7108C31.7161 46.7563 32.0867 47.9688 32.1156 49.2137C32.1156 49.9366 31.9742 50.6524 31.6996 51.3203C31.425 51.9881 31.0224 52.5948 30.515 53.1058C30.0076 53.6168 29.4052 54.0219 28.7423 54.2982C28.0795 54.5744 27.3691 54.7162 26.6518 54.7156ZM11.5812 16.3283C10.998 16.3283 10.4387 16.5618 10.0263 16.9774C9.61395 17.393 9.38228 17.9567 9.38228 18.5445C9.38228 19.1322 9.61395 19.6959 10.0263 20.1116C10.4387 20.5272 10.998 20.7607 11.5812 20.7607C11.6807 20.755 11.7802 20.7697 11.8739 20.8038C11.9675 20.838 12.0533 20.891 12.1261 20.9595C12.1989 21.028 12.2571 21.1107 12.2973 21.2026C12.3374 21.2945 12.3587 21.3936 12.3598 21.4939V27.0986C12.3805 27.4573 12.2809 27.8126 12.0771 28.1074C11.8315 28.5325 1.69638 45.8556 1.59443 46.019C0.976951 46.9721 0.636603 48.0804 0.611954 49.2184C0.613181 50.5162 1.12526 51.7604 2.0358 52.6781C2.94634 53.5958 4.18095 54.1119 5.46865 54.1131H26.6657C27.9506 54.107 29.181 53.5888 30.0882 52.6718C30.9955 51.7548 31.5061 50.5134 31.5085 49.2184C31.4836 48.0804 31.1433 46.9722 30.526 46.019C30.526 46.019 20.289 28.5371 20.0434 28.1074C19.8416 27.8203 19.7405 27.4735 19.7561 27.122V21.5173C19.7571 21.4165 19.7785 21.317 19.819 21.2248C19.8594 21.1326 19.9181 21.0497 19.9913 20.9811C20.0646 20.9125 20.151 20.8596 20.2452 20.8257C20.3394 20.7919 20.4394 20.7777 20.5392 20.784C21.1224 20.784 21.6817 20.5505 22.0941 20.1349C22.5065 19.7193 22.7382 19.1556 22.7382 18.5678C22.7382 17.9801 22.5065 17.4164 22.0941 17.0007C21.6817 16.5851 21.1224 16.3516 20.5392 16.3516L11.5812 16.3283Z" fill="white"/>
<path fill-rule="evenodd" clip-rule="evenodd" d="M16.5072 9.84216C16.5063 10.3112 16.3675 10.7695 16.1082 11.1591C15.849 11.5486 15.481 11.852 15.0507 12.0309C14.6205 12.2097 14.1473 12.256 13.6909 12.164C13.2345 12.0719 12.8155 11.8456 12.4867 11.5136C12.1579 11.1815 11.9342 10.7588 11.8437 10.2987C11.7533 9.83853 11.8002 9.36171 11.9785 8.92844C12.1568 8.49517 12.4585 8.12488 12.8456 7.86438C13.2326 7.60388 13.6876 7.46484 14.153 7.46484C14.4626 7.46484 14.7691 7.52636 15.055 7.64589C15.3409 7.76542 15.6007 7.94061 15.8193 8.16142C16.038 8.38224 16.2113 8.64434 16.3293 8.93275C16.4474 9.22115 16.5078 9.53018 16.5072 9.84216Z" fill="url(#paint0_linear_100_4484)"/>
<path d="M14.1486 12.5111C13.6245 12.5102 13.1125 12.3527 12.6772 12.0586C12.2419 11.7645 11.9028 11.3469 11.7029 10.8587C11.503 10.3704 11.4511 9.83339 11.5539 9.31547C11.6567 8.79755 11.9096 8.32197 12.2805 7.94881C12.6514 7.57565 13.1237 7.32167 13.6378 7.21896C14.1519 7.11626 14.6846 7.16943 15.1687 7.37177C15.6528 7.57411 16.0665 7.91654 16.3576 8.35577C16.6487 8.79501 16.804 9.31134 16.804 9.83952C16.8028 10.5485 16.5225 11.228 16.0246 11.7289C15.5268 12.2298 14.8521 12.5111 14.1486 12.5111ZM14.1486 7.7658C13.7416 7.7658 13.3438 7.88743 13.0055 8.11529C12.6671 8.34315 12.4034 8.66701 12.2476 9.04594C12.0919 9.42486 12.0511 9.84183 12.1305 10.2441C12.2099 10.6464 12.4059 11.0159 12.6937 11.3059C12.9814 11.5959 13.348 11.7934 13.7472 11.8734C14.1463 11.9534 14.56 11.9124 14.936 11.7554C15.312 11.5984 15.6333 11.3327 15.8594 10.9916C16.0855 10.6506 16.2062 10.2497 16.2062 9.83952C16.2062 9.28954 15.9894 8.76208 15.6036 8.37318C15.2177 7.98428 14.6943 7.7658 14.1486 7.7658Z" fill="white"/>
<path d="M21.2572 8.8367C23.5965 8.8367 25.4929 6.92545 25.4929 4.56781C25.4929 2.21017 23.5965 0.29892 21.2572 0.29892C18.9179 0.29892 17.0215 2.21017 17.0215 4.56781C17.0215 6.92545 18.9179 8.8367 21.2572 8.8367Z" fill="url(#paint1_linear_100_4484)"/>
<path d="M21.253 9.13561C20.3566 9.13561 19.4803 8.86771 18.735 8.3658C17.9897 7.86388 17.4087 7.15049 17.0657 6.31583C16.7227 5.48117 16.6329 4.56275 16.8078 3.67668C16.9827 2.79061 17.4143 1.9767 18.0482 1.33788C18.682 0.699061 19.4896 0.26402 20.3688 0.0877699C21.248 -0.08848 22.1593 0.00198292 22.9874 0.347709C23.8156 0.693436 24.5234 1.2789 25.0215 2.03007C25.5195 2.78124 25.7853 3.66438 25.7853 4.5678C25.7841 5.77888 25.3062 6.94001 24.4565 7.79637C23.6068 8.65273 22.4547 9.13437 21.253 9.13561ZM21.253 0.597828C20.475 0.598752 19.7148 0.832106 19.0684 1.26838C18.422 1.70465 17.9184 2.32427 17.6213 3.04892C17.3242 3.77356 17.247 4.5707 17.3993 5.33958C17.5517 6.10847 17.9267 6.81459 18.4772 7.36868C19.0276 7.92277 19.7287 8.29996 20.4918 8.45259C21.2548 8.60521 22.0457 8.52642 22.7644 8.22616C23.483 7.92589 24.0972 7.41764 24.5294 6.76565C24.9615 6.11366 25.1921 5.34721 25.1921 4.56314C25.1897 3.51186 24.7736 2.50447 24.0351 1.76198C23.2966 1.01948 22.2961 0.6025 21.253 0.602503V0.597828Z" fill="white"/>
<path d="M18.4908 4.98818C18.3802 4.98818 18.2741 4.94389 18.1959 4.86506C18.1177 4.78623 18.0737 4.6793 18.0737 4.56782C18.075 3.7172 18.4108 2.90179 19.0076 2.30031C19.6044 1.69884 20.4135 1.36038 21.2575 1.35915C21.3681 1.35915 21.4742 1.40344 21.5524 1.48227C21.6306 1.5611 21.6745 1.66801 21.6745 1.77949C21.6745 1.89098 21.6306 1.9979 21.5524 2.07673C21.4742 2.15557 21.3681 2.19986 21.2575 2.19986C20.6347 2.20109 20.0378 2.45097 19.5974 2.89478C19.157 3.33859 18.9091 3.94017 18.9079 4.56782C18.9079 4.6793 18.8639 4.78623 18.7857 4.86506C18.7075 4.94389 18.6014 4.98818 18.4908 4.98818Z" fill="white"/>
<path d="M13.0134 10.1622C12.9351 10.161 12.8604 10.1291 12.805 10.0733C12.7496 10.0175 12.718 9.9422 12.7168 9.8633C12.7168 9.6658 12.7554 9.47024 12.8304 9.28777C12.9054 9.10531 13.0153 8.93953 13.1539 8.79988C13.2924 8.66022 13.4569 8.54944 13.638 8.47386C13.819 8.39828 14.0131 8.35938 14.209 8.35938C14.2877 8.35938 14.3631 8.39088 14.4187 8.44693C14.4744 8.50299 14.5056 8.57902 14.5056 8.6583C14.5056 8.73757 14.4744 8.8136 14.4187 8.86966C14.3631 8.92572 14.2877 8.95722 14.209 8.95722C13.9714 8.95845 13.7439 9.05445 13.5763 9.22424C13.4087 9.39403 13.3146 9.62379 13.3146 9.8633C13.3146 9.90295 13.3068 9.9422 13.2916 9.97878C13.2764 10.0154 13.2541 10.0485 13.2261 10.0763C13.1981 10.1042 13.1648 10.1261 13.1283 10.1408C13.0918 10.1556 13.0527 10.1628 13.0134 10.1622Z" fill="white"/>
<path d="M10.6544 19.6955C10.6138 19.6956 10.5735 19.6873 10.5361 19.6713C10.4986 19.6552 10.4648 19.6317 10.4366 19.6021C10.1735 19.3147 10.0278 18.9376 10.0288 18.5466C10.0282 18.3374 10.0685 18.1302 10.1473 17.9367C10.2262 17.7432 10.3421 17.5673 10.4884 17.419C10.6347 17.2707 10.8086 17.1528 11.0001 17.0722C11.1916 16.9916 11.3969 16.9498 11.6045 16.9492H17.7263C17.7992 16.9584 17.8662 16.9941 17.9148 17.0495C17.9634 17.105 17.9902 17.1765 17.9902 17.2505C17.9902 17.3245 17.9634 17.3959 17.9148 17.4514C17.8662 17.5069 17.7992 17.5426 17.7263 17.5517H11.6137C11.3527 17.553 11.1029 17.6583 10.9187 17.8447C10.7346 18.0312 10.6313 18.2835 10.6313 18.5466C10.631 18.7864 10.7222 19.0172 10.8862 19.1911C10.9413 19.2478 10.9723 19.3241 10.9723 19.4036C10.9723 19.4831 10.9413 19.5594 10.8862 19.6161C10.8554 19.6452 10.8188 19.6673 10.7788 19.681C10.7388 19.6947 10.6964 19.6997 10.6544 19.6955Z" fill="white"/>
<path fill-rule="evenodd" clip-rule="evenodd" d="M23.3059 33.0769C23.0854 32.8085 22.809 32.5925 22.4961 32.4443C22.1833 32.296 21.8419 32.2192 21.4962 32.2192C21.1506 32.2192 20.8091 32.296 20.4963 32.4443C20.1835 32.5925 19.907 32.8085 19.6866 33.0769C19.4656 33.3453 19.1887 33.5613 18.8756 33.7096C18.5624 33.8579 18.2206 33.9348 17.8746 33.9348C17.5285 33.9348 17.1868 33.8579 16.8736 33.7096C16.5604 33.5613 16.2835 33.3453 16.0626 33.0769C15.8417 32.8085 15.5648 32.5924 15.2516 32.4441C14.9384 32.2959 14.5966 32.219 14.2506 32.219C13.9046 32.219 13.5628 32.2959 13.2496 32.4441C12.9364 32.5924 12.6595 32.8085 12.4386 33.0769C12.2181 33.3452 11.9416 33.5612 11.6288 33.7095C11.316 33.8577 10.9746 33.9346 10.6289 33.9346C10.2833 33.9346 9.94183 33.8577 9.62902 33.7095C9.31621 33.5612 9.03972 33.3452 8.81925 33.0769L4.12012 41.1102C4.12012 41.1102 5.45478 42.5114 7.10457 42.5114C8.75437 42.5114 10.089 41.1102 10.089 41.1102C10.089 41.1102 11.4237 39.7091 13.0689 39.7091C14.714 39.7091 16.0533 41.1102 16.0533 41.1102C16.0533 41.1102 17.3926 42.5114 19.0378 42.5114C20.6829 42.5114 22.0222 41.1102 22.0222 41.1102C22.0222 41.1102 23.3569 39.7091 25.0067 39.7091C26.6565 39.7091 27.9911 41.1102 27.9911 41.1102L23.3059 33.0769Z" fill="url(#paint2_linear_100_4484)"/>
<path d="M19.0469 42.8299C17.2905 42.8299 15.9049 41.3867 15.8447 41.326C15.7844 41.2653 14.5703 40.0042 13.0641 40.0042C11.558 40.0042 10.3067 41.312 10.2836 41.326C10.2604 41.34 8.84231 42.8299 7.08593 42.8299C5.32955 42.8299 3.94392 41.3867 3.88367 41.326C3.83932 41.2785 3.81131 41.2179 3.8038 41.1531C3.79628 41.0884 3.80966 41.0229 3.84195 40.9664L8.54109 32.933C8.56477 32.8934 8.59712 32.8598 8.63567 32.8347C8.67423 32.8096 8.71797 32.7937 8.76354 32.7882C8.80918 32.7831 8.85538 32.7885 8.8987 32.8038C8.94202 32.8192 8.98135 32.8442 9.01378 32.877C9.20674 33.1153 9.4499 33.3074 9.72563 33.4393C10.0014 33.5712 10.3027 33.6396 10.608 33.6396C10.9132 33.6396 11.2146 33.5712 11.4903 33.4393C11.766 33.3074 12.0092 33.1153 12.2021 32.877C12.4505 32.5793 12.7605 32.34 13.1103 32.1758C13.4602 32.0117 13.8414 31.9266 14.2273 31.9266C14.6132 31.9266 14.9944 32.0117 15.3443 32.1758C15.6941 32.34 16.0041 32.5793 16.2525 32.877C16.4459 33.1145 16.6892 33.3059 16.9649 33.4373C17.2406 33.5687 17.5417 33.6369 17.8467 33.6369C18.1516 33.6369 18.4528 33.5687 18.7284 33.4373C19.0041 33.3059 19.2474 33.1145 19.4408 32.877C19.6892 32.5785 19.9994 32.3385 20.3497 32.1738C20.7 32.0092 21.0818 31.9238 21.4683 31.9238C21.8548 31.9238 22.2367 32.0092 22.5869 32.1738C22.9372 32.3385 23.2474 32.5785 23.4958 32.877L28.2645 40.9617C28.2915 41.0238 28.2972 41.0933 28.2805 41.159C28.2639 41.2248 28.2258 41.283 28.1725 41.3244C28.1191 41.3658 28.0536 41.388 27.9862 41.3874C27.9189 41.3869 27.8537 41.3636 27.801 41.3213C27.801 41.3213 26.5266 39.9996 25.0205 39.9996C23.5143 39.9996 22.2631 41.3073 22.2399 41.3213C22.2168 41.3353 20.8033 42.8299 19.0469 42.8299ZM13.0734 39.4017C14.8298 39.4017 16.2154 40.8496 16.2757 40.9103C16.3359 40.971 17.5501 42.2321 19.0562 42.2321C20.5623 42.2321 21.8368 40.9243 21.8368 40.9103C21.8368 40.8963 23.2826 39.4017 25.039 39.4017C25.7325 39.4188 26.4102 39.6133 27.0086 39.9669L23.0695 33.2366C22.6437 32.8306 22.0958 32.5792 21.5123 32.522C20.9067 32.5802 20.3407 32.8514 19.9135 33.288C19.6652 33.5856 19.3552 33.8249 19.0053 33.9891C18.6555 34.1533 18.2743 34.2383 17.8884 34.2383C17.5025 34.2383 17.1212 34.1533 16.7714 33.9891C16.4216 33.8249 16.1116 33.5856 15.8632 33.288C15.6702 33.0497 15.4271 32.8576 15.1513 32.7257C14.8756 32.5938 14.5742 32.5253 14.269 32.5253C13.9638 32.5253 13.6624 32.5938 13.3867 32.7257C13.111 32.8576 12.8678 33.0497 12.6748 33.288C12.1351 33.8374 11.415 34.1695 10.6497 34.2221C10.0109 34.1897 9.40034 33.9469 8.91182 33.5308L4.51856 41.0458C5.22971 41.7249 6.15085 42.1372 7.12765 42.2134C8.62451 42.2134 9.88503 40.9057 9.9082 40.8916C9.93137 40.8776 11.3216 39.3971 13.0734 39.3971V39.4017Z" fill="white"/>
<path fill-rule="evenodd" clip-rule="evenodd" d="M31.8051 49.2176C31.8051 49.1942 31.8051 49.1709 31.8051 49.1475C31.8051 49.1242 30.0256 47.2793 27.8707 47.2793C25.7157 47.2793 23.9315 49.1475 23.9315 49.1475C23.9315 49.1475 22.1705 51.0157 19.9971 51.0157C17.8236 51.0157 16.058 49.1475 16.058 49.1475C16.058 49.1475 14.2969 47.2793 12.1188 47.2793C9.94075 47.2793 8.17974 49.1475 8.17974 49.1475C8.17974 49.1475 6.41873 51.0157 4.24526 51.0157C2.0718 51.0157 0.306152 49.1475 0.306152 49.1475C0.306152 49.1709 0.306152 49.1896 0.306152 49.2176C0.306152 49.9 0.439598 50.5758 0.698864 51.2062C0.958131 51.8366 1.33813 52.4094 1.81715 52.8917C2.29617 53.374 2.86481 53.7565 3.49057 54.0172C4.11633 54.278 4.78693 54.4118 5.46406 54.4112H26.6611C28.0263 54.4088 29.3346 53.8605 30.2991 52.8867C31.2635 51.913 31.8051 50.5934 31.8051 49.2176Z" fill="url(#paint3_linear_100_4484)"/>
<path d="M26.6518 54.7153H5.45475C4.00807 54.7141 2.62093 54.1347 1.59754 53.1042C0.574149 52.0736 -0.00194097 50.6761 -0.00439453 49.2181C-0.00411493 49.1546 0.0132742 49.0924 0.0459249 49.0381C0.0785755 48.9838 0.125257 48.9395 0.180973 48.9098C0.232668 48.8811 0.291789 48.8689 0.350528 48.8747C0.409268 48.8805 0.464863 48.9042 0.51 48.9425C0.533172 48.9425 2.22468 50.722 4.24058 50.722C6.25648 50.722 7.94798 48.9659 7.94798 48.9519C7.94798 48.9378 9.80168 46.9902 12.1188 46.9902C14.4359 46.9902 16.2016 48.8584 16.2896 48.9519C16.3777 49.0453 17.9904 50.722 19.997 50.722C22.0037 50.722 23.7044 48.9659 23.7044 48.9519C23.7044 48.9378 25.5581 46.9902 27.8752 46.9902C30.1924 46.9902 31.9441 48.8585 32.0229 48.9425C32.0503 48.97 32.0719 49.0028 32.0862 49.0389C32.1006 49.0751 32.1074 49.1138 32.1063 49.1527C32.1137 49.8798 31.9781 50.6011 31.7074 51.275C31.4366 51.949 31.0362 52.5622 30.5291 53.0794C30.022 53.5966 29.4182 54.0074 28.7528 54.2882C28.0873 54.569 27.3732 54.7141 26.6518 54.7153ZM0.649036 49.8673C0.803864 51.042 1.37627 52.1202 2.26005 52.9018C3.14382 53.6834 4.27895 54.1154 5.45475 54.1175H26.6518C27.9296 54.1152 29.1552 53.6064 30.0639 52.701C30.9726 51.7957 31.4915 50.5665 31.5085 49.2788C31.1517 48.9379 29.6548 47.5881 27.866 47.5881C25.8408 47.5881 24.1586 49.3442 24.1586 49.3582C24.1586 49.3722 22.3049 51.3198 19.9878 51.3198C17.6706 51.3198 15.9096 49.4516 15.8169 49.3582C15.7243 49.2648 14.1115 47.5881 12.1095 47.5881C10.1075 47.5881 8.40214 49.3442 8.40214 49.3582C8.40214 49.3722 6.54844 51.3198 4.23132 51.3198C2.91019 51.2467 1.6504 50.7342 0.649036 49.8626V49.8673Z" fill="white"/>
<path fill-rule="evenodd" clip-rule="evenodd" d="M30.781 45.8597L28.0004 41.1004C27.9541 41.0537 26.6472 39.6992 25.0252 39.6992C23.4033 39.6992 22.0408 41.1004 22.0408 41.1004C22.0408 41.1004 20.7061 42.5016 19.0563 42.5016C17.4065 42.5016 16.0719 41.1004 16.0719 41.1004C16.0719 41.1004 14.7326 39.6992 13.0874 39.6992C11.4423 39.6992 10.1076 41.1004 10.1076 41.1004C10.1076 41.1004 8.77294 42.5016 7.12314 42.5016C5.47335 42.5016 4.13869 41.1004 4.13869 41.1004L4.07844 41.1704L1.33959 45.841C0.715752 46.8196 0.362213 47.9482 0.31543 49.1104C0.31543 49.1104 2.08108 50.9786 4.25454 50.9786C6.428 50.9786 8.18901 49.1104 8.18901 49.1104C8.18901 49.1104 9.95466 47.2422 12.1281 47.2422C14.3016 47.2422 16.0672 49.1104 16.0672 49.1104C16.0672 49.1104 17.8329 50.9786 20.0063 50.9786C22.1798 50.9786 23.9408 49.1104 23.9408 49.1104C23.9408 49.1104 25.7019 47.2422 27.8799 47.2422C30.058 47.2422 31.7773 49.0684 31.8144 49.1104C31.7616 47.9537 31.405 46.8319 30.781 45.8597Z" fill="url(#paint4_linear_100_4484)"/>
<path d="M19.9923 51.3146C17.7169 51.3146 15.9141 49.4463 15.8215 49.3529C15.7288 49.2595 14.1161 47.5828 12.1141 47.5828C10.1121 47.5828 8.40666 49.3389 8.40666 49.3529C8.40666 49.3669 6.55296 51.3146 4.23584 51.3146C1.91871 51.3146 0.157698 49.4463 0.0650126 49.3529C0.0346121 49.3207 0.0109741 49.2825 -0.00449832 49.2408C-0.00956827 49.2052 -0.00956827 49.169 -0.00449832 49.1334C0.0360173 47.9151 0.402715 46.7306 1.05675 45.7052L3.88827 40.9132C3.91482 40.8806 3.948 40.8542 3.98558 40.8357C4.02316 40.8171 4.06426 40.8069 4.10608 40.8058C4.18891 40.8092 4.26781 40.8423 4.32853 40.8992C4.32853 40.8992 5.60295 42.221 7.10908 42.221C8.61521 42.221 9.86646 40.9132 9.88963 40.8992C9.9128 40.8852 11.3355 39.3906 13.0873 39.3906C14.839 39.3906 16.2293 40.8385 16.2895 40.8992C16.3498 40.9599 17.5639 42.221 19.0701 42.221C20.5762 42.221 21.8506 40.9132 21.8506 40.8992C21.8506 40.8852 23.2965 39.3906 25.0529 39.3906C26.8093 39.3906 28.2366 40.8759 28.2505 40.8945L31.0728 45.7052C31.7274 46.732 32.0941 47.9183 32.134 49.1381C32.134 49.198 32.1164 49.2566 32.0834 49.3065C32.0504 49.3564 32.0035 49.3953 31.9487 49.4183C31.8931 49.4409 31.8321 49.4464 31.7735 49.4339C31.7149 49.4214 31.6613 49.3916 31.6196 49.3483C31.5501 49.2782 29.9049 47.5781 27.9122 47.5781C25.9195 47.5781 24.2048 49.3342 24.2048 49.3483C24.2048 49.3623 22.2677 51.3146 19.9923 51.3146ZM12.1141 46.9803C14.3941 46.9803 16.1968 48.8485 16.2849 48.9419C16.3729 49.0353 17.9857 50.7121 19.9923 50.7121C21.9989 50.7121 23.6997 48.9559 23.6997 48.9419C23.6997 48.9279 25.5534 46.9803 27.8705 46.9803C29.1855 47.0533 30.4405 47.5586 31.4435 48.4188C31.2904 47.5631 30.9757 46.745 30.5167 46.0088L27.7361 41.2495C27.7361 41.2495 26.4849 39.9885 25.0158 39.9885C23.5468 39.9885 22.2584 41.2962 22.2353 41.3102C22.2121 41.3242 20.7894 42.8142 19.033 42.8142C17.2766 42.8142 15.891 41.3709 15.8307 41.3102C15.7705 41.2495 14.5563 39.9885 13.0502 39.9885C11.5441 39.9885 10.2928 41.2962 10.2696 41.3102C10.2465 41.3242 8.82838 42.8142 7.072 42.8142C5.98045 42.7493 4.94445 42.3072 4.13852 41.5624L1.54334 46.0041C0.969129 46.9067 0.632606 47.9419 0.565519 49.012C0.931625 49.3623 2.41921 50.7027 4.20803 50.7027C6.22857 50.7027 7.91543 48.9466 7.91543 48.9326C7.91543 48.9186 9.83864 46.985 12.1141 46.985V46.9803Z" fill="white"/>
<path fill-rule="evenodd" clip-rule="evenodd" d="M16.2712 19.4262C14.4916 19.4262 13.5601 18.8797 13.1106 18.8797C12.8955 18.8797 12.6893 18.9658 12.5372 19.1191C12.3851 19.2724 12.2996 19.4803 12.2996 19.6971C12.2996 19.9138 12.3851 20.1217 12.5372 20.275C12.6893 20.4283 12.8955 20.5144 13.1106 20.5144C13.2616 20.5114 13.4095 20.4714 13.5416 20.3976C13.8231 20.2826 14.1231 20.2208 14.4268 20.2155C15.0225 20.2167 15.5935 20.4558 16.0147 20.8803C16.436 21.3049 16.6731 21.8803 16.6744 22.4807C16.6744 23.8819 15.59 25.9649 11.8872 27.7865L8.80078 33.0782C9.02125 33.3465 9.29775 33.5625 9.61056 33.7108C9.92337 33.8591 10.2648 33.9359 10.6105 33.9359C10.9561 33.9359 11.2975 33.8591 11.6104 33.7108C11.9232 33.5625 12.1997 33.3465 12.4201 33.0782C12.641 32.8098 12.9179 32.5937 13.2311 32.4455C13.5443 32.2972 13.8861 32.2203 14.2321 32.2203C14.5781 32.2203 14.9199 32.2972 15.2331 32.4455C15.5463 32.5937 15.8232 32.8098 16.0441 33.0782C16.265 33.3466 16.5419 33.5627 16.8551 33.7109C17.1683 33.8592 17.5101 33.9361 17.8561 33.9361C18.2021 33.9361 18.5439 33.8592 18.8571 33.7109C19.1703 33.5627 19.4472 33.3466 19.6681 33.0782C19.8886 32.8099 20.1651 32.5939 20.4779 32.4456C20.7907 32.2973 21.1321 32.2205 21.4778 32.2205C21.8235 32.2205 22.1649 32.2973 22.4777 32.4456C22.7905 32.5939 23.067 32.8099 23.2874 33.0782L20.2798 27.9406C20.1012 27.6919 20.0158 27.3874 20.0388 27.0812V21.4765C20.0388 21.0422 20.5023 21.0422 20.5023 21.0422C21.117 21.045 21.7112 20.8188 22.1706 20.4071C22.63 19.9953 22.9222 19.427 22.9912 18.8113C23.0602 18.1956 22.901 17.5759 22.5442 17.0713C22.1875 16.5667 21.6583 16.2127 21.0584 16.0774C20.8752 16.0774 20.6996 16.0041 20.5701 15.8735C20.4406 15.743 20.3679 15.566 20.3679 15.3815C20.3733 15.2503 20.4148 15.1233 20.4876 15.0144C20.5604 14.9056 20.6617 14.8192 20.7803 14.7649C21.1337 14.5886 21.4319 14.3174 21.6421 13.9812C21.8522 13.6449 21.9662 13.2567 21.9713 12.8594C21.9647 12.5211 21.8777 12.1893 21.7176 11.8919C21.5575 11.5945 21.329 11.3401 21.0512 11.1502C20.7734 10.9602 20.4544 10.8401 20.121 10.8C19.7877 10.76 19.4496 10.8011 19.1353 10.9199C18.8209 11.0387 18.5394 11.2317 18.3144 11.4828C18.0894 11.7339 17.9274 12.0358 17.8421 12.363C17.7567 12.6902 17.7505 13.0333 17.8239 13.3635C17.8973 13.6937 18.0482 14.0013 18.2639 14.2605C18.8108 14.9845 19.1908 15.5683 19.1908 16.4137C19.1914 16.8076 19.1148 17.1978 18.9655 17.5619C18.8162 17.9259 18.5971 18.2567 18.3207 18.5353C18.0443 18.8138 17.7161 19.0347 17.3549 19.1852C16.9936 19.3356 16.6065 19.4128 16.2156 19.4121L16.2712 19.4262Z" fill="url(#paint5_linear_100_4484)"/>
<path d="M17.8746 34.2305C17.1087 34.1801 16.3879 33.8476 15.8494 33.2964C15.6565 33.0581 15.4133 32.866 15.1376 32.7341C14.8618 32.6022 14.5604 32.5337 14.2552 32.5337C13.95 32.5337 13.6486 32.6022 13.3729 32.7341C13.0972 32.866 12.854 33.0581 12.6611 33.2964C12.4127 33.594 12.1027 33.8333 11.7529 33.9975C11.403 34.1617 11.0218 34.2467 10.6359 34.2467C10.25 34.2467 9.86876 34.1617 9.51892 33.9975C9.16908 33.8333 8.85911 33.594 8.61072 33.2964C8.56637 33.2489 8.53836 33.1883 8.53085 33.1235C8.52333 33.0587 8.53672 32.9933 8.56902 32.9368L11.6415 27.645C11.6738 27.5952 11.7185 27.5549 11.7713 27.5282C16.058 25.4171 16.4055 23.1426 16.4055 22.4934C16.4043 21.9723 16.1984 21.4728 15.8327 21.1044C15.4671 20.7359 14.9716 20.5283 14.4545 20.5271C14.1872 20.5326 13.9232 20.5881 13.676 20.6906L13.5925 20.7279C13.4495 20.8021 13.2898 20.8375 13.1291 20.8307C12.9837 20.8307 12.8396 20.8018 12.7053 20.7457C12.5709 20.6896 12.4488 20.6074 12.3459 20.5037C12.2431 20.4001 12.1615 20.277 12.1058 20.1416C12.0502 20.0062 12.0215 19.861 12.0215 19.7144C12.0215 19.5678 12.0502 19.4227 12.1058 19.2872C12.1615 19.1518 12.2431 19.0287 12.3459 18.9251C12.4488 18.8214 12.5709 18.7392 12.7053 18.6831C12.8396 18.627 12.9837 18.5981 13.1291 18.5981C13.3713 18.6172 13.6097 18.6691 13.8382 18.7523C14.6071 19 15.4083 19.1307 16.2155 19.1399H16.2758C16.9854 19.1387 17.6655 18.8537 18.1668 18.3476C18.6682 17.8415 18.9497 17.1555 18.9497 16.4403C18.9497 15.7304 18.6717 15.226 18.1202 14.4927C17.8658 14.1977 17.6862 13.8449 17.5966 13.4647C17.507 13.0844 17.5102 12.6879 17.6058 12.3091C17.7015 11.9303 17.8868 11.5805 18.1458 11.2897C18.4049 10.9988 18.73 10.7755 19.0934 10.639C19.4567 10.5024 19.8475 10.4566 20.2323 10.5054C20.6171 10.5543 20.9844 10.6964 21.3028 10.9196C21.6212 11.1427 21.8812 11.4403 22.0606 11.7868C22.2399 12.1334 22.3333 12.5185 22.3327 12.9094C22.3293 13.3623 22.2015 13.8054 21.9635 14.1896C21.7255 14.5738 21.3865 14.884 20.9842 15.0859C20.9158 15.1172 20.8567 15.166 20.8128 15.2275C20.7689 15.2889 20.7417 15.3609 20.7339 15.4362C20.7339 15.4883 20.7441 15.5399 20.7639 15.5881C20.7837 15.6363 20.8127 15.68 20.8493 15.7169C20.8859 15.7538 20.9293 15.783 20.9771 15.8029C21.0249 15.8229 21.0761 15.8332 21.1278 15.8332C21.1727 15.8322 21.2171 15.8418 21.2576 15.8612C21.9336 16.0144 22.5284 16.4164 22.9256 16.9885C23.3229 17.5606 23.4939 18.2616 23.4052 18.9541C23.3165 19.6466 22.9744 20.2808 22.446 20.7324C21.9176 21.1841 21.241 21.4207 20.5486 21.3958C20.4281 21.3958 20.3678 21.4425 20.3678 21.5266V27.1312C20.3481 27.3828 20.4188 27.6332 20.5671 27.8365L23.5376 32.89C23.5818 32.9325 23.6121 32.9875 23.6246 33.0477C23.6371 33.1079 23.6311 33.1705 23.6075 33.2272C23.5839 33.2839 23.5437 33.3321 23.4924 33.3653C23.441 33.3985 23.3808 33.4152 23.3198 33.4131C23.2791 33.4135 23.2388 33.4054 23.2013 33.3893C23.1638 33.3732 23.13 33.3495 23.102 33.3197C22.9091 33.0806 22.6657 32.8878 22.3895 32.7554C22.1133 32.6229 21.8114 32.5542 21.5055 32.5542C21.1997 32.5542 20.8977 32.6229 20.6215 32.7554C20.3454 32.8878 20.102 33.0806 19.909 33.3197C19.3641 33.8637 18.6404 34.1877 17.8746 34.2305ZM14.2506 31.8952C15.0164 31.9461 15.737 32.2785 16.2758 32.8293C16.4692 33.0669 16.7125 33.2583 16.9882 33.3897C17.2639 33.5211 17.565 33.5893 17.87 33.5893C18.1749 33.5893 18.476 33.5211 18.7517 33.3897C19.0274 33.2583 19.2707 33.0669 19.4641 32.8293C20.0053 32.2792 20.7271 31.9471 21.4939 31.8952C21.7998 31.8984 22.102 31.9619 22.3837 32.082L20.0388 28.0794C19.837 27.7922 19.7359 27.4454 19.7515 27.0939V21.4892C19.7525 21.3884 19.7739 21.2889 19.8144 21.1967C19.8548 21.1045 19.9135 21.0216 19.9868 20.953C20.06 20.8844 20.1464 20.8315 20.2406 20.7977C20.3348 20.7638 20.4348 20.7496 20.5347 20.7559C21.0754 20.762 21.5992 20.5664 22.0055 20.2068C22.4118 19.8471 22.6719 19.3488 22.7357 18.8076C22.7995 18.2664 22.6626 17.7206 22.3513 17.275C22.0399 16.8294 21.5761 16.5155 21.049 16.3936C20.8345 16.3785 20.6308 16.2924 20.4697 16.1488C20.3085 16.0051 20.1989 15.812 20.1577 15.5992C20.1165 15.3864 20.1461 15.1658 20.2419 14.9717C20.3377 14.7776 20.4944 14.6207 20.6876 14.5254C20.9907 14.3726 21.2464 14.139 21.427 13.85C21.6075 13.5609 21.706 13.2275 21.7117 12.886C21.7118 12.594 21.6419 12.3062 21.5081 12.0471C21.3743 11.788 21.1805 11.5652 20.9431 11.3977C20.7057 11.2301 20.4318 11.1227 20.1444 11.0846C19.8571 11.0464 19.5649 11.0787 19.2926 11.1786C19.0202 11.2784 18.7758 11.443 18.58 11.6584C18.3842 11.8737 18.2428 12.1334 18.1677 12.4156C18.0927 12.6977 18.0863 12.9939 18.149 13.279C18.2117 13.5642 18.3417 13.8299 18.528 14.0537L18.5605 14.0911C19.1444 14.7309 19.4857 15.5578 19.5244 16.4263C19.5235 17.2869 19.1892 18.1131 18.5928 18.729C17.9964 19.3449 17.185 19.7018 16.3314 19.7237H16.2619C15.373 19.7227 14.4897 19.5825 13.6435 19.3081C13.4691 19.2475 13.289 19.2053 13.1059 19.182C13.039 19.182 12.9727 19.1952 12.9109 19.2211C12.849 19.2469 12.7928 19.2847 12.7455 19.3324C12.6981 19.3801 12.6606 19.4368 12.635 19.4991C12.6094 19.5614 12.5962 19.6283 12.5962 19.6957C12.5962 19.7632 12.6094 19.83 12.635 19.8923C12.6606 19.9547 12.6981 20.0113 12.7455 20.059C12.7928 20.1067 12.849 20.1446 12.9109 20.1704C12.9727 20.1962 13.039 20.2095 13.1059 20.2095C13.18 20.215 13.254 20.1988 13.3191 20.1628L13.435 20.1161C13.7486 19.9875 14.0835 19.9194 14.4221 19.9152C15.0977 19.9165 15.7453 20.1875 16.223 20.669C16.7008 21.1505 16.9697 21.8031 16.9709 22.484C16.9709 23.4182 16.5075 25.8282 12.0957 28.0187L9.19 33.0208C9.58692 33.379 10.0906 33.5942 10.622 33.6327C11.2255 33.5751 11.7897 33.3056 12.2162 32.8714C12.7551 32.3126 13.4793 31.9735 14.2506 31.9186V31.8952Z" fill="white"/>
<path d="M18.9544 13.0075C18.8999 13.0063 18.848 12.9836 18.8099 12.9443C18.7718 12.905 18.7505 12.8523 18.7505 12.7973C18.7505 12.4988 18.8682 12.2125 19.0776 12.0014C19.2871 11.7903 19.5711 11.6717 19.8673 11.6717C19.9227 11.6717 19.9757 11.6939 20.0148 11.7333C20.0539 11.7727 20.0759 11.8261 20.0759 11.8819C20.0759 11.9376 20.0539 11.9911 20.0148 12.0305C19.9757 12.0699 19.9227 12.0921 19.8673 12.0921C19.6818 12.0921 19.5038 12.1664 19.3725 12.2986C19.2413 12.4309 19.1676 12.6103 19.1676 12.7973C19.1676 12.8253 19.162 12.853 19.1513 12.8788C19.1405 12.9047 19.1247 12.928 19.1049 12.9476C19.085 12.9672 19.0615 12.9826 19.0356 12.9929C19.0098 13.0031 18.9822 13.0081 18.9544 13.0075Z" fill="white"/>
<path fill-rule="evenodd" clip-rule="evenodd" d="M19.2324 16.0156H20.5346C20.7212 16.023 20.907 16.0432 21.0907 16.0763" fill="#0093D5"/>
<path d="M21.0954 16.3929H21.0397C20.8712 16.3622 20.701 16.3419 20.53 16.3322H19.237C19.1981 16.3322 19.1595 16.3245 19.1235 16.3095C19.0875 16.2944 19.0548 16.2724 19.0273 16.2447C18.9998 16.2169 18.9779 16.1839 18.963 16.1477C18.9481 16.1114 18.9404 16.0726 18.9404 16.0333C18.9404 15.994 18.9481 15.9552 18.963 15.9189C18.9779 15.8826 18.9998 15.8497 19.0273 15.8219C19.0548 15.7942 19.0875 15.7722 19.1235 15.7571C19.1595 15.7421 19.1981 15.7344 19.237 15.7344H20.5392C20.7442 15.744 20.9485 15.7659 21.151 15.7998C21.2282 15.8167 21.296 15.8631 21.3401 15.9292C21.3842 15.9954 21.4011 16.0762 21.3873 16.1547C21.3734 16.2223 21.3367 16.2829 21.2835 16.3263C21.2303 16.3698 21.1638 16.3933 21.0954 16.3929Z" fill="white"/>
<path d="M6.11745 52.913H5.45476C4.97337 52.913 4.49669 52.8175 4.05195 52.6318C3.60721 52.4461 3.20312 52.174 2.86273 51.831C2.52234 51.4879 2.25231 51.0806 2.0681 50.6324C1.88388 50.1842 1.78906 49.7038 1.78906 49.2186C1.81802 48.2959 2.10212 47.3998 2.60933 46.6311L13.0966 28.7102C13.4107 28.2334 13.5725 27.6711 13.5601 27.0989V22.2274C13.5601 22.1469 13.5918 22.0697 13.6483 22.0128C13.7048 21.9559 13.7814 21.9239 13.8613 21.9239C13.901 21.9232 13.9405 21.9307 13.9773 21.9457C14.0141 21.9607 14.0476 21.9831 14.0757 22.0114C14.1038 22.0397 14.1259 22.0734 14.1409 22.1105C14.1558 22.1476 14.1631 22.1874 14.1625 22.2274V27.0989C14.1845 27.7774 14.0019 28.4466 13.6388 29.0184L3.11909 46.9347C2.66829 47.6125 2.41319 48.4032 2.38225 49.2186C2.38347 50.0383 2.7071 50.824 3.28217 51.4036C3.85724 51.9831 4.63684 52.3093 5.45012 52.3105H6.11282C6.1921 52.3105 6.26813 52.3423 6.32419 52.3988C6.38024 52.4553 6.41173 52.5319 6.41173 52.6118C6.41173 52.6917 6.38024 52.7683 6.32419 52.8248C6.26813 52.8813 6.1921 52.913 6.11282 52.913H6.11745Z" fill="white"/>
<path d="M207.077 38.2005C205.793 36.7293 203.986 35.9913 201.683 35.9913C200.998 35.98 200.315 36.0713 199.657 36.2622C199.142 36.4107 198.654 36.646 198.216 36.9581C198.196 35.9678 198.293 34.9785 198.503 34.011C198.654 33.2962 198.961 32.6244 199.402 32.0447C199.82 31.5384 200.357 31.1464 200.964 30.9051C201.686 30.6187 202.444 30.4348 203.216 30.3586C204.23 30.2466 205.234 30.0577 206.219 29.7935C206.973 29.6046 207.713 29.3642 208.435 29.0742C208.49 29.0742 208.532 28.7753 208.532 28.5137C208.532 28.2522 208.481 27.5376 208.444 27.3321C208.407 27.1266 208.18 27.0705 208.18 27.0705L203.796 27.262C202.184 27.2955 200.585 27.5484 199.041 28.014C197.83 28.391 196.741 29.0857 195.885 30.027C195.015 31.0585 194.412 32.2907 194.129 33.614C193.739 35.4177 193.559 37.2609 193.591 39.1066V45.5099C193.591 48.9101 194.245 51.3341 195.551 52.8147C196.858 54.2952 198.795 55.0285 201.298 55.0285C203.8 55.0285 205.7 54.2952 207.021 52.8147C208.342 51.3341 209 48.8961 209 45.4959C209 42.0957 208.36 39.6764 207.077 38.2005ZM204.111 48.9007C203.975 49.6416 203.738 50.3599 203.406 51.0352C203.19 51.4945 202.852 51.8842 202.429 52.1608C202.089 52.3764 201.695 52.4909 201.293 52.4909C200.891 52.4909 200.498 52.3764 200.158 52.1608C199.736 51.885 199.397 51.4992 199.175 51.0445C198.845 50.3701 198.612 49.6512 198.485 48.9101C198.288 47.7864 198.197 46.6462 198.216 45.5052V39.6951C198.216 39.4335 198.295 39.4148 198.332 39.3775C198.558 39.1961 198.809 39.0497 199.078 38.9431C199.54 38.7706 200.031 38.6897 200.524 38.7049C201.061 38.7005 201.592 38.8137 202.081 39.0365C202.586 39.282 203.015 39.6635 203.318 40.1388C203.706 40.7772 203.974 41.4815 204.111 42.2172C204.306 43.2955 204.396 44.3905 204.38 45.4866C204.398 46.6306 204.308 47.7739 204.111 48.9007Z" fill="white"/>
<path d="M56.3157 51.8717C55.8665 51.4747 55.5561 50.9425 55.4305 50.3538L54.2766 45.3096C54.1254 44.626 53.8985 43.9618 53.6 43.3293C53.3579 42.8207 53.0459 42.349 52.6731 41.9281C52.3535 41.5769 51.9832 41.2762 51.5748 41.0361C51.2061 40.8222 50.8182 40.644 50.4162 40.5036V40.3541C51.1953 40.0927 51.8805 39.6052 52.3858 38.953C53.0779 37.9316 53.5847 36.7946 53.8827 35.5949L55.0412 31.7183C55.196 31.1171 55.5175 30.5727 55.9681 30.149C56.4397 29.777 57.0237 29.5791 57.6225 29.5885C57.6969 29.5778 57.7659 29.5428 57.8186 29.4888C57.8714 29.4348 57.905 29.3648 57.9145 29.2896V27.6923C57.9144 27.6103 57.8855 27.5311 57.8329 27.4686C57.7803 27.4062 57.7074 27.3646 57.6271 27.3513L57.2193 27.2439C56.9426 27.1812 56.6625 27.1344 56.3805 27.1038C55.9958 27.0618 55.609 27.0415 55.222 27.043C53.79 27.043 52.7056 27.4307 51.978 28.2154C51.1294 29.228 50.5222 30.4231 50.2031 31.7089L49.0445 35.5855C48.8436 36.5241 48.4506 37.4102 47.8906 38.187C47.731 38.3957 47.5279 38.5665 47.2957 38.6876C47.0635 38.8086 46.8079 38.8769 46.5467 38.8876H45.9905C45.8701 38.8642 45.7727 38.8876 45.7727 38.7755V27.6923C45.7734 27.6585 45.7674 27.625 45.7551 27.5936C45.7429 27.5622 45.7246 27.5335 45.7014 27.5092C45.6781 27.4849 45.6504 27.4655 45.6197 27.452C45.589 27.4386 45.556 27.4313 45.5225 27.4307H41.4073C41.3734 27.4307 41.3399 27.4375 41.3086 27.4507C41.2774 27.4639 41.2491 27.4832 41.2254 27.5076C41.2016 27.5319 41.183 27.5608 41.1704 27.5925C41.1579 27.6242 41.1518 27.6581 41.1524 27.6923V54.3471C41.1524 54.4153 41.1792 54.4806 41.227 54.5288C41.2748 54.577 41.3397 54.604 41.4073 54.604H45.5225C45.5893 54.6028 45.6529 54.5752 45.6997 54.5272C45.7465 54.4791 45.7728 54.4145 45.7727 54.3471V42.1196C45.7727 41.9842 45.884 42.0122 46.0183 42.0075H46.5467C47.1936 42.0009 47.8167 42.2528 48.2799 42.7081C48.7433 43.1752 49.1511 44.0439 49.4338 45.3096L50.5877 50.3538C50.9538 51.9044 51.5146 53.0674 52.2653 53.8474C53.0161 54.6274 54.119 55.015 55.5927 55.015C56.2655 55.0321 56.9378 54.9662 57.5947 54.8189C57.7384 54.7908 57.8681 54.7675 57.9886 54.7348C58.0763 54.691 58.1511 54.6249 58.2056 54.5429C58.26 54.461 58.2923 54.3661 58.2991 54.2677V52.9133C58.2974 52.8152 58.2632 52.7205 58.2019 52.6443C58.1405 52.5681 58.0557 52.5148 57.9608 52.4929C57.3589 52.4771 56.7797 52.2584 56.3157 51.8717Z" fill="white"/>
<path d="M115.462 40.2365C115.203 39.1077 114.718 38.0444 114.035 37.1119C113.446 36.3282 112.654 35.7237 111.746 35.3651C109.739 34.6439 107.547 34.6439 105.541 35.3651C104.633 35.7251 103.841 36.3294 103.251 37.1119C102.573 38.0463 102.089 39.1091 101.828 40.2365C101.462 41.7652 101.293 43.3349 101.323 44.9071C101.295 46.48 101.469 48.0501 101.842 49.5777C102.126 50.7293 102.668 51.7999 103.427 52.7069C104.154 53.5216 105.083 54.1248 106.12 54.4537C107.373 54.8387 108.679 55.0215 109.989 54.9955C111.611 54.9977 113.224 54.7681 114.781 54.3136C114.849 54.2849 114.906 54.2358 114.945 54.1732C114.984 54.1105 115.003 54.0372 114.999 53.9633V52.5621C115 52.5285 114.995 52.4949 114.983 52.4634C114.971 52.432 114.952 52.4034 114.929 52.3793C114.905 52.3553 114.877 52.3363 114.846 52.3236C114.815 52.3108 114.782 52.3046 114.749 52.3053H110.754C109.109 52.3053 107.895 51.8662 107.116 50.9648C106.338 50.0634 105.981 48.6295 105.953 46.5278C105.953 46.397 105.953 46.2943 106.064 46.2943L115.699 46.2616C115.732 46.261 115.765 46.2537 115.796 46.2402C115.827 46.2268 115.854 46.2073 115.878 46.183C115.901 46.1587 115.919 46.1301 115.931 46.0987C115.944 46.0673 115.95 46.0338 115.949 46V44.9258C115.983 43.3483 115.819 41.7728 115.462 40.2365ZM106.073 43.5713C105.93 43.5713 105.967 43.4686 105.958 43.3331C105.948 42.3732 106.016 41.4141 106.162 40.4654C106.258 39.8101 106.445 39.1718 106.718 38.5692C106.895 38.1752 107.192 37.8482 107.566 37.635C107.901 37.47 108.27 37.3841 108.643 37.3841C109.017 37.3841 109.385 37.47 109.721 37.635C110.098 37.8437 110.396 38.1721 110.569 38.5692C110.845 39.1706 111.032 39.8094 111.125 40.4654C111.271 41.414 111.34 42.3732 111.329 43.3331C111.329 43.4592 111.329 43.5713 111.217 43.5713H106.073Z" fill="white"/>
<path d="M188.878 38.0977C188.588 37.2909 188.065 36.59 187.377 36.0847C186.638 35.5741 185.796 35.2358 184.911 35.0946C183.777 34.9007 182.628 34.8101 181.477 34.8237C180.658 34.828 179.841 34.9046 179.035 35.0525C178.379 35.1681 177.73 35.3241 177.093 35.5196C177.019 35.5476 176.857 35.5896 176.857 35.7905V37.1916C176.857 37.4018 177.126 37.5186 177.126 37.5186H180.731C181.777 37.4613 182.814 37.7357 183.697 38.3032C184.415 38.8217 184.777 39.8585 184.777 41.4092V42.9691C184.281 42.8617 183.767 42.7683 183.215 42.6936C181.798 42.5004 180.359 42.5462 178.956 42.829C178.224 42.9734 177.537 43.2939 176.954 43.7631C176.357 44.2692 175.901 44.9225 175.629 45.6594C174.981 47.6785 174.981 49.8521 175.629 51.8712C175.898 52.6002 176.338 53.2525 176.912 53.7721C177.456 54.2364 178.106 54.5574 178.803 54.7062C179.563 54.8829 180.341 54.9691 181.12 54.9631C182.018 55.0058 182.914 54.8463 183.743 54.4961C184.332 54.2263 184.877 53.8689 185.361 53.4359H185.546L186.01 54.2252C186.065 54.3249 186.142 54.4105 186.235 54.4753C186.328 54.5401 186.435 54.5824 186.547 54.5988H189.165C189.233 54.5988 189.298 54.5718 189.346 54.5236C189.393 54.4754 189.42 54.4101 189.42 54.3419V41.4232C189.44 40.2908 189.256 39.1643 188.878 38.0977ZM184.596 51.6424C184.388 51.805 184.159 51.9386 183.915 52.0394C183.513 52.2025 183.083 52.2819 182.65 52.2729C182.302 52.27 181.956 52.2197 181.621 52.1234C181.269 52.0186 180.95 51.824 180.694 51.5583C180.396 51.2464 180.166 50.8759 180.017 50.47C179.824 49.9316 179.732 49.3612 179.749 48.7887C179.732 48.2131 179.824 47.6395 180.017 47.0979C180.164 46.6939 180.395 46.3261 180.694 46.019C180.948 45.7516 181.268 45.5567 181.621 45.4539C181.954 45.3507 182.301 45.2972 182.65 45.2951H184.503C184.642 45.2951 184.758 45.2717 184.758 45.4072V51.208C184.761 51.3762 184.702 51.5393 184.591 51.6657L184.596 51.6424Z" fill="white"/>
<path d="M171.101 27.4455H157.356C157.322 27.4455 157.288 27.4523 157.257 27.4655C157.226 27.4787 157.198 27.498 157.174 27.5224C157.15 27.5467 157.132 27.5756 157.119 27.6073C157.107 27.639 157.1 27.6729 157.101 27.707L156.132 46.464C156.103 47.4089 155.975 48.3481 155.752 49.2663C155.592 49.9319 155.318 50.5641 154.941 51.1346C154.659 51.5646 154.275 51.9176 153.825 52.1621C153.499 52.3271 153.145 52.4285 152.782 52.461C152.738 52.4639 152.696 52.4756 152.656 52.4954C152.617 52.5152 152.582 52.5426 152.554 52.5761C152.525 52.6096 152.504 52.6484 152.491 52.6904C152.477 52.7324 152.472 52.7767 152.476 52.8206V54.1844C152.467 54.2852 152.485 54.3865 152.528 54.4778C152.571 54.5691 152.638 54.6468 152.722 54.7029C152.874 54.7478 153.028 54.7821 153.185 54.8056C153.842 54.9522 154.514 55.018 155.187 55.0018C155.926 55.0086 156.658 54.849 157.328 54.5347C158.01 54.1994 158.593 53.6907 159.02 53.0588C159.552 52.2515 159.95 51.3616 160.197 50.4246C160.533 49.1282 160.727 47.7985 160.776 46.4593L161.578 30.7663C161.578 30.6495 161.578 30.5467 161.717 30.5467H166.629C166.773 30.5467 166.75 30.6635 166.75 30.813V54.3619C166.749 54.3954 166.755 54.4287 166.767 54.4599C166.78 54.491 166.798 54.5194 166.821 54.5433C166.844 54.5672 166.872 54.5862 166.903 54.5992C166.934 54.6121 166.966 54.6188 167 54.6188H171.12C171.186 54.6176 171.25 54.59 171.297 54.5419C171.344 54.4939 171.37 54.4293 171.37 54.3619V27.693C171.366 27.6245 171.336 27.5601 171.286 27.5138C171.235 27.4675 171.169 27.4429 171.101 27.4455Z" fill="white"/>
<path d="M152.041 35.2109H138.3C138.232 35.2121 138.166 35.2401 138.118 35.2889C138.069 35.3377 138.042 35.4035 138.041 35.4725V37.8685C138.042 37.937 138.07 38.0024 138.118 38.0504C138.167 38.0985 138.232 38.1254 138.3 38.1254H142.73C142.874 38.1254 142.851 38.2421 142.851 38.3869V54.3696C142.851 54.4037 142.858 54.4375 142.871 54.469C142.884 54.5004 142.903 54.529 142.927 54.5529C142.951 54.5768 142.98 54.5956 143.011 54.6083C143.043 54.6209 143.077 54.6271 143.11 54.6265H147.221C147.289 54.6265 147.353 54.5994 147.401 54.5512C147.449 54.503 147.476 54.4377 147.476 54.3696V38.3869C147.476 38.2421 147.453 38.1254 147.587 38.1254H152.031C152.099 38.1254 152.165 38.0985 152.213 38.0504C152.262 38.0024 152.29 37.937 152.291 37.8685V35.4725C152.291 35.4047 152.265 35.3396 152.218 35.2908C152.171 35.242 152.108 35.2134 152.041 35.2109Z" fill="white"/>
<path d="M134.328 35.2109H130.218C130.184 35.2109 130.15 35.2177 130.119 35.2309C130.088 35.2441 130.06 35.2635 130.036 35.2878C130.012 35.3122 129.993 35.341 129.981 35.3727C129.968 35.4044 129.962 35.4384 129.963 35.4725V43.1042C129.963 43.2396 129.986 43.3564 129.842 43.3564H124.874C124.731 43.3564 124.759 43.2396 124.759 43.0995V35.4725C124.759 35.4039 124.732 35.3381 124.684 35.2892C124.636 35.2403 124.572 35.2122 124.504 35.2109H120.388C120.32 35.2109 120.254 35.2385 120.205 35.2875C120.156 35.3366 120.129 35.4031 120.129 35.4725V54.3696C120.13 54.4381 120.158 54.5035 120.207 54.5515C120.255 54.5995 120.32 54.6265 120.388 54.6265H124.504C124.571 54.6253 124.635 54.5978 124.683 54.5499C124.73 54.502 124.757 54.4373 124.759 54.3696V46.5324C124.759 46.3969 124.731 46.2802 124.874 46.2802H129.842C129.986 46.2802 129.963 46.3923 129.963 46.5324V54.3696C129.963 54.4377 129.99 54.503 130.037 54.5512C130.085 54.5994 130.15 54.6265 130.218 54.6265H134.333C134.4 54.6253 134.464 54.5978 134.512 54.5499C134.559 54.502 134.587 54.4373 134.588 54.3696V35.4725C134.588 35.4031 134.56 35.3366 134.512 35.2875C134.463 35.2385 134.397 35.2109 134.328 35.2109Z" fill="white"/>
<path d="M96.7309 35.2168H92.2171C92.0781 35.2168 91.851 35.3336 91.851 35.4737L86.9526 47.0613H86.758V35.4737C86.758 35.4056 86.7311 35.3402 86.6833 35.292C86.6355 35.2439 86.5707 35.2168 86.5031 35.2168H82.5918C82.5233 35.2168 82.4575 35.2435 82.4082 35.2914C82.3589 35.3394 82.33 35.4047 82.3276 35.4737V54.3708C82.3282 54.4051 82.3356 54.439 82.3492 54.4705C82.3628 54.502 82.3824 54.5305 82.4069 54.5544C82.4315 54.5782 82.4604 54.597 82.4921 54.6095C82.5238 54.6221 82.5577 54.6283 82.5918 54.6277H86.7024C86.8414 54.6277 87.0917 54.4735 87.0917 54.3287L92.3515 42.4001H92.5415V54.3708C92.5415 54.4389 92.5684 54.5042 92.6162 54.5524C92.664 54.6006 92.7288 54.6277 92.7964 54.6277H96.7216C96.7892 54.6277 96.854 54.6006 96.9018 54.5524C96.9496 54.5042 96.9765 54.4389 96.9765 54.3708V35.4737C96.9766 35.4071 96.951 35.3432 96.9052 35.2953C96.8593 35.2473 96.7969 35.2192 96.7309 35.2168Z" fill="white"/>
<path d="M76.9519 35.2113H64.3653C64.2965 35.2113 64.2305 35.2389 64.1818 35.2879C64.1331 35.337 64.1058 35.4035 64.1058 35.4729C64.1058 35.4729 64.0455 36.2856 64.0502 36.2902L63.3411 48.4337C63.2346 49.9843 62.8777 51.0866 62.3262 51.7311C61.9445 52.2019 61.4177 52.5307 60.8294 52.6652C60.729 52.6834 60.6373 52.7344 60.5686 52.8104C60.4999 52.8864 60.458 52.9831 60.4494 53.0856V54.2112C60.4362 54.3254 60.4654 54.4405 60.5312 54.5345C60.5971 54.6284 60.695 54.6946 60.8062 54.7203L61.214 54.8324C61.784 54.9731 62.3697 55.0391 62.9565 55.0285C63.6092 55.0317 64.2542 54.8868 64.8439 54.6046C65.4335 54.3225 65.9526 53.9103 66.3627 53.3985C67.2895 52.3103 67.8317 50.6522 67.9615 48.429L68.5825 38.3873C68.5825 38.2425 68.5825 38.1258 68.703 38.1258H72.4799C72.6235 38.1258 72.5957 38.2425 72.5957 38.3873V54.37C72.5957 54.4381 72.6226 54.5034 72.6704 54.5516C72.7182 54.5998 72.783 54.6269 72.8506 54.6269H76.9612C77.0292 54.6269 77.0945 54.6 77.1431 54.5519C77.1916 54.5039 77.2195 54.4385 77.2207 54.37V35.4729C77.2208 35.4378 77.2137 35.403 77.2001 35.3706C77.1865 35.3382 77.1666 35.309 77.1415 35.2846C77.1164 35.2602 77.0867 35.2411 77.0541 35.2285C77.0215 35.2159 76.9868 35.2101 76.9519 35.2113Z" fill="white"/>
</g>
<defs>
<linearGradient id="paint0_linear_100_4484" x1="11.7942" y1="9.84216" x2="16.5072" y2="9.84216" gradientUnits="userSpaceOnUse">
<stop offset="0.1" stop-color="#00ABEB"/>
<stop offset="0.9" stop-color="#2D4E9D"/>
</linearGradient>
<linearGradient id="paint1_linear_100_4484" x1="17.0215" y1="4.56781" x2="25.4929" y2="4.56781" gradientUnits="userSpaceOnUse">
<stop offset="0.1" stop-color="#00ABEB"/>
<stop offset="0.9" stop-color="#2D4E9D"/>
</linearGradient>
<linearGradient id="paint2_linear_100_4484" x1="4.12475" y1="37.3738" x2="28.005" y2="37.3738" gradientUnits="userSpaceOnUse">
<stop offset="0.1" stop-color="#8BBD4F"/>
<stop offset="0.9" stop-color="#2A7742"/>
</linearGradient>
<linearGradient id="paint3_linear_100_4484" x1="0.296884" y1="50.8476" x2="31.8051" y2="50.8476" gradientUnits="userSpaceOnUse">
<stop offset="0.1" stop-color="#CE4229"/>
<stop offset="0.9" stop-color="#9E191E"/>
</linearGradient>
<linearGradient id="paint4_linear_100_4484" x1="0.301527" y1="45.3553" x2="31.8005" y2="45.3553" gradientUnits="userSpaceOnUse">
<stop offset="0.1" stop-color="#F8DC2F"/>
<stop offset="0.9" stop-color="#DA802D"/>
</linearGradient>
<linearGradient id="paint5_linear_100_4484" x1="10.7564" y1="22.3499" x2="23.7833" y2="22.3499" gradientUnits="userSpaceOnUse">
<stop offset="0.1" stop-color="#00ABEB"/>
<stop offset="0.9" stop-color="#2D4E9D"/>
</linearGradient>
<clipPath id="clip0_100_4484">
<rect width="209" height="56" fill="white"/>
</clipPath>
</defs>
</svg>
