<svg width="129" height="21" viewBox="0 0 129 21" fill="none" xmlns="http://www.w3.org/2000/svg">
<path d="M11.2102 19.24C9.91416 19.24 8.69816 19 7.56216 18.52C6.44216 18.024 5.45816 17.344 4.61016 16.48C3.77816 15.6 3.12216 14.576 2.64216 13.408C2.17816 12.24 1.94616 10.976 1.94616 9.616C1.94616 8.272 2.17816 7.024 2.64216 5.872C3.12216 4.704 3.77816 3.688 4.61016 2.824C5.45816 1.944 6.44216 1.256 7.56216 0.759999C8.68216 0.263999 9.89816 0.0159998 11.2102 0.0159998C12.4422 0.0159998 13.4982 0.176 14.3782 0.495999C15.2742 0.815999 16.1702 1.344 17.0662 2.08C17.1942 2.176 17.2902 2.28 17.3542 2.392C17.4342 2.488 17.4822 2.592 17.4982 2.704C17.5302 2.8 17.5462 2.92 17.5462 3.064C17.5462 3.368 17.4342 3.624 17.2102 3.832C17.0022 4.024 16.7462 4.136 16.4422 4.168C16.1382 4.184 15.8422 4.08 15.5542 3.856C14.9622 3.344 14.3462 2.952 13.7062 2.68C13.0822 2.408 12.2502 2.272 11.2102 2.272C10.2662 2.272 9.37816 2.464 8.54616 2.848C7.71416 3.232 6.97816 3.76 6.33816 4.432C5.71416 5.104 5.22616 5.888 4.87416 6.784C4.52216 7.664 4.34616 8.608 4.34616 9.616C4.34616 10.64 4.52216 11.6 4.87416 12.496C5.22616 13.376 5.71416 14.152 6.33816 14.824C6.97816 15.496 7.71416 16.024 8.54616 16.408C9.37816 16.776 10.2662 16.96 11.2102 16.96C12.0262 16.96 12.7942 16.824 13.5142 16.552C14.2502 16.264 14.9542 15.872 15.6262 15.376C15.9142 15.168 16.1942 15.08 16.4662 15.112C16.7542 15.128 16.9942 15.24 17.1862 15.448C17.3782 15.64 17.4742 15.912 17.4742 16.264C17.4742 16.424 17.4422 16.584 17.3782 16.744C17.3142 16.888 17.2182 17.024 17.0902 17.152C16.2262 17.84 15.2982 18.36 14.3062 18.712C13.3302 19.064 12.2982 19.24 11.2102 19.24ZM24.3464 19C23.6424 19 23.0184 18.808 22.4744 18.424C21.9304 18.04 21.5064 17.52 21.2024 16.864C20.8984 16.192 20.7464 15.424 20.7464 14.56V1.456C20.7464 1.104 20.8584 0.816 21.0824 0.592C21.3064 0.368 21.5944 0.256 21.9464 0.256C22.2984 0.256 22.5864 0.368 22.8104 0.592C23.0344 0.816 23.1464 1.104 23.1464 1.456V14.56C23.1464 15.152 23.2584 15.64 23.4824 16.024C23.7064 16.408 23.9944 16.6 24.3464 16.6H24.9464C25.2664 16.6 25.5224 16.712 25.7144 16.936C25.9224 17.16 26.0264 17.448 26.0264 17.8C26.0264 18.152 25.8744 18.44 25.5704 18.664C25.2664 18.888 24.8744 19 24.3944 19H24.3464ZM29.8857 19C29.5337 19 29.2377 18.888 28.9977 18.664C28.7737 18.424 28.6617 18.128 28.6617 17.776V7.096C28.6617 6.728 28.7737 6.432 28.9977 6.208C29.2377 5.984 29.5337 5.872 29.8857 5.872C30.2537 5.872 30.5497 5.984 30.7737 6.208C30.9977 6.432 31.1097 6.728 31.1097 7.096V17.776C31.1097 18.128 30.9977 18.424 30.7737 18.664C30.5497 18.888 30.2537 19 29.8857 19ZM29.8857 3.736C29.4537 3.736 29.0777 3.584 28.7577 3.28C28.4537 2.96 28.3017 2.584 28.3017 2.152C28.3017 1.72 28.4537 1.352 28.7577 1.048C29.0777 0.728 29.4537 0.568 29.8857 0.568C30.3177 0.568 30.6857 0.728 30.9897 1.048C31.3097 1.352 31.4697 1.72 31.4697 2.152C31.4697 2.584 31.3097 2.96 30.9897 3.28C30.6857 3.584 30.3177 3.736 29.8857 3.736ZM41.8319 19.096C40.5039 19.096 39.3199 18.816 38.2799 18.256C37.2559 17.68 36.4479 16.896 35.8559 15.904C35.2799 14.896 34.9919 13.744 34.9919 12.448C34.9919 11.136 35.2639 9.984 35.8079 8.992C36.3679 7.984 37.1359 7.2 38.1119 6.64C39.0879 6.064 40.2079 5.776 41.4719 5.776C42.7199 5.776 43.7919 6.056 44.6879 6.616C45.5839 7.16 46.2639 7.92 46.7279 8.896C47.2079 9.856 47.4479 10.968 47.4479 12.232C47.4479 12.536 47.3439 12.792 47.1359 13C46.9279 13.192 46.6639 13.288 46.3439 13.288H36.6719V11.368H46.2719L45.2879 12.04C45.2719 11.24 45.1119 10.528 44.8079 9.904C44.5039 9.264 44.0719 8.76 43.5119 8.392C42.9519 8.024 42.2719 7.84 41.4719 7.84C40.5599 7.84 39.7759 8.04 39.1199 8.44C38.4799 8.84 37.9919 9.392 37.6559 10.096C37.3199 10.784 37.1519 11.568 37.1519 12.448C37.1519 13.328 37.3519 14.112 37.7519 14.8C38.1519 15.488 38.7039 16.032 39.4079 16.432C40.1119 16.832 40.9199 17.032 41.8319 17.032C42.3279 17.032 42.8319 16.944 43.3439 16.768C43.8719 16.576 44.2959 16.36 44.6159 16.12C44.8559 15.944 45.1119 15.856 45.3839 15.856C45.6719 15.84 45.9199 15.92 46.1279 16.096C46.3999 16.336 46.5439 16.6 46.5599 16.888C46.5759 17.176 46.4479 17.424 46.1759 17.632C45.6319 18.064 44.9519 18.416 44.1359 18.688C43.3359 18.96 42.5679 19.096 41.8319 19.096ZM61.6582 19.024C61.3062 19.024 61.0102 18.912 60.7702 18.688C60.5462 18.448 60.4342 18.152 60.4342 17.8V11.896C60.4342 10.984 60.2662 10.24 59.9302 9.664C59.5942 9.088 59.1382 8.664 58.5622 8.392C58.0022 8.104 57.3542 7.96 56.6182 7.96C55.9462 7.96 55.3382 8.096 54.7942 8.368C54.2502 8.64 53.8182 9.008 53.4982 9.472C53.1782 9.92 53.0182 10.44 53.0182 11.032H51.5062C51.5062 10.024 51.7462 9.128 52.2262 8.344C52.7222 7.544 53.3942 6.912 54.2422 6.448C55.0902 5.984 56.0422 5.752 57.0982 5.752C58.2022 5.752 59.1862 5.992 60.0502 6.472C60.9302 6.936 61.6182 7.624 62.1142 8.536C62.6262 9.448 62.8822 10.568 62.8822 11.896V17.8C62.8822 18.152 62.7622 18.448 62.5222 18.688C62.2982 18.912 62.0102 19.024 61.6582 19.024ZM51.7942 19.024C51.4422 19.024 51.1462 18.912 50.9062 18.688C50.6822 18.448 50.5702 18.152 50.5702 17.8V7.096C50.5702 6.728 50.6822 6.432 50.9062 6.208C51.1462 5.984 51.4422 5.872 51.7942 5.872C52.1622 5.872 52.4582 5.984 52.6822 6.208C52.9062 6.432 53.0182 6.728 53.0182 7.096V17.8C53.0182 18.152 52.9062 18.448 52.6822 18.688C52.4582 18.912 52.1622 19.024 51.7942 19.024ZM71.7055 19C70.9055 19 70.1855 18.8 69.5455 18.4C68.9055 17.984 68.4015 17.424 68.0335 16.72C67.6655 16.016 67.4815 15.224 67.4815 14.344V2.896C67.4815 2.544 67.5935 2.256 67.8175 2.032C68.0415 1.808 68.3295 1.696 68.6815 1.696C69.0335 1.696 69.3215 1.808 69.5455 2.032C69.7695 2.256 69.8815 2.544 69.8815 2.896V14.344C69.8815 14.984 70.0575 15.52 70.4095 15.952C70.7615 16.384 71.1935 16.6 71.7055 16.6H72.5215C72.8095 16.6 73.0495 16.712 73.2415 16.936C73.4495 17.16 73.5535 17.448 73.5535 17.8C73.5535 18.152 73.4175 18.44 73.1455 18.664C72.8895 18.888 72.5535 19 72.1375 19H71.7055ZM66.3775 8.416C66.0415 8.416 65.7695 8.32 65.5615 8.128C65.3535 7.936 65.2495 7.696 65.2495 7.408C65.2495 7.088 65.3535 6.832 65.5615 6.64C65.7695 6.448 66.0415 6.352 66.3775 6.352H71.9215C72.2575 6.352 72.5295 6.448 72.7375 6.64C72.9455 6.832 73.0495 7.088 73.0495 7.408C73.0495 7.696 72.9455 7.936 72.7375 8.128C72.5295 8.32 72.2575 8.416 71.9215 8.416H66.3775ZM77.2583 19.384C76.8103 19.384 76.4183 19.224 76.0823 18.904C75.7623 18.568 75.6023 18.176 75.6023 17.728C75.6023 17.264 75.7623 16.872 76.0823 16.552C76.4183 16.216 76.8103 16.048 77.2583 16.048C77.7223 16.048 78.1143 16.216 78.4343 16.552C78.7543 16.872 78.9143 17.264 78.9143 17.728C78.9143 18.176 78.7543 18.568 78.4343 18.904C78.1143 19.224 77.7223 19.384 77.2583 19.384ZM83.7451 19C83.3931 19 83.0971 18.88 82.8571 18.64C82.6331 18.4 82.5211 18.104 82.5211 17.752V1.504C82.5211 1.152 82.6411 0.855999 82.8811 0.615999C83.1211 0.375999 83.4091 0.256 83.7451 0.256C84.0971 0.256 84.3931 0.375999 84.6331 0.615999C84.8731 0.855999 84.9931 1.152 84.9931 1.504V16.504H93.6811C94.0331 16.504 94.3291 16.624 94.5691 16.864C94.8091 17.104 94.9291 17.4 94.9291 17.752C94.9291 18.104 94.8091 18.4 94.5691 18.64C94.3291 18.88 94.0331 19 93.6811 19H83.7451ZM103.152 19.096C101.984 19.096 100.936 18.808 100.008 18.232C99.0795 17.64 98.3435 16.848 97.7995 15.856C97.2715 14.848 97.0075 13.712 97.0075 12.448C97.0075 11.184 97.2955 10.048 97.8715 9.04C98.4635 8.032 99.2555 7.24 100.248 6.664C101.256 6.072 102.384 5.776 103.632 5.776C104.88 5.776 106 6.072 106.992 6.664C107.984 7.24 108.768 8.032 109.344 9.04C109.936 10.048 110.232 11.184 110.232 12.448H109.296C109.296 13.712 109.024 14.848 108.48 15.856C107.952 16.848 107.224 17.64 106.296 18.232C105.368 18.808 104.32 19.096 103.152 19.096ZM103.632 16.936C104.448 16.936 105.176 16.744 105.816 16.36C106.456 15.96 106.96 15.424 107.328 14.752C107.696 14.064 107.88 13.296 107.88 12.448C107.88 11.584 107.696 10.816 107.328 10.144C106.96 9.456 106.456 8.92 105.816 8.536C105.176 8.136 104.448 7.936 103.632 7.936C102.832 7.936 102.104 8.136 101.448 8.536C100.808 8.92 100.296 9.456 99.9115 10.144C99.5435 10.816 99.3595 11.584 99.3595 12.448C99.3595 13.296 99.5435 14.064 99.9115 14.752C100.296 15.424 100.808 15.96 101.448 16.36C102.104 16.744 102.832 16.936 103.632 16.936ZM109.008 19.024C108.656 19.024 108.36 18.912 108.12 18.688C107.896 18.448 107.784 18.152 107.784 17.8V14.128L108.24 11.584L110.232 12.448V17.8C110.232 18.152 110.112 18.448 109.872 18.688C109.648 18.912 109.36 19.024 109.008 19.024ZM120.475 19.096C119.227 19.096 118.107 18.808 117.115 18.232C116.123 17.64 115.339 16.84 114.763 15.832C114.187 14.824 113.891 13.688 113.875 12.424V1.48C113.875 1.112 113.987 0.816 114.211 0.592C114.451 0.368 114.747 0.256 115.099 0.256C115.467 0.256 115.763 0.368 115.987 0.592C116.211 0.816 116.323 1.112 116.323 1.48V7.96C116.883 7.288 117.555 6.76 118.339 6.376C119.139 5.976 120.011 5.776 120.955 5.776C122.123 5.776 123.171 6.072 124.099 6.664C125.027 7.24 125.755 8.032 126.283 9.04C126.827 10.032 127.099 11.16 127.099 12.424C127.099 13.688 126.803 14.824 126.211 15.832C125.635 16.84 124.851 17.64 123.859 18.232C122.867 18.808 121.739 19.096 120.475 19.096ZM120.475 16.936C121.291 16.936 122.019 16.744 122.659 16.36C123.299 15.96 123.803 15.416 124.171 14.728C124.555 14.04 124.747 13.272 124.747 12.424C124.747 11.56 124.555 10.792 124.171 10.12C123.803 9.448 123.299 8.92 122.659 8.536C122.019 8.136 121.291 7.936 120.475 7.936C119.675 7.936 118.947 8.136 118.291 8.536C117.651 8.92 117.147 9.448 116.779 10.12C116.411 10.792 116.227 11.56 116.227 12.424C116.227 13.272 116.411 14.04 116.779 14.728C117.147 15.416 117.651 15.96 118.291 16.36C118.947 16.744 119.675 16.936 120.475 16.936Z" fill="#222222"/>
</svg>
