<svg width="1530" height="101" viewBox="0 0 1530 101" fill="none" xmlns="http://www.w3.org/2000/svg">
<g opacity="0.5" filter="url(#filter0_i_202_1294)">
<path d="M1532.63 148.254C1532.97 133.679 1523.51 120.683 1509.53 116.536L1489.59 110.623C1485.64 109.45 1481.81 107.869 1478.19 105.905L1459.88 95.9944C1404.02 65.7536 1338.99 57.087 1277.16 71.6414L1212.87 86.7748C1115.21 109.761 1012.6 98.0955 922.601 53.7742L911.325 48.2216C822.123 4.29444 721.242 -10.0603 623.327 7.24122L430.292 41.3503C382.215 49.8456 333.137 51.0982 284.689 45.0665L74.2728 18.8701C48.4885 15.66 22.7515 25.1737 5.25464 44.3828L-0.589329 50.7987C-9.80611 60.9174 -15.0573 74.025 -15.3761 87.7084V87.7084C-16.1064 119.056 8.71398 145.061 40.0617 145.791L1499.59 179.793C1517.42 180.208 1532.22 166.088 1532.63 148.254V148.254Z" fill="url(#paint0_linear_202_1294)" fill-opacity="0.2"/>
</g>
<defs>
<filter id="filter0_i_202_1294" x="-15.3916" y="0.106079" width="1548.03" height="183.696" filterUnits="userSpaceOnUse" color-interpolation-filters="sRGB">
<feFlood flood-opacity="0" result="BackgroundImageFix"/>
<feBlend mode="normal" in="SourceGraphic" in2="BackgroundImageFix" result="shape"/>
<feColorMatrix in="SourceAlpha" type="matrix" values="0 0 0 0 0 0 0 0 0 0 0 0 0 0 0 0 0 0 127 0" result="hardAlpha"/>
<feOffset dy="4"/>
<feGaussianBlur stdDeviation="20"/>
<feComposite in2="hardAlpha" operator="arithmetic" k2="-1" k3="1"/>
<feColorMatrix type="matrix" values="0 0 0 0 1 0 0 0 0 1 0 0 0 0 1 0 0 0 0.8 0"/>
<feBlend mode="normal" in2="shape" result="effect1_innerShadow_202_1294"/>
</filter>
<linearGradient id="paint0_linear_202_1294" x1="766.322" y1="25.067" x2="766.322" y2="329.518" gradientUnits="userSpaceOnUse">
<stop stop-color="#003B98"/>
<stop offset="1" stop-color="#4D3EDB"/>
</linearGradient>
</defs>
</svg>
