<svg width="1530" height="126" viewBox="0 0 1530 126" fill="none" xmlns="http://www.w3.org/2000/svg">
<g opacity="0.5" filter="url(#filter0_i_2006_707)">
<path d="M1531.55 162.709C1531.89 148.133 1522.42 135.137 1508.45 130.991L1493.64 126.599C1486.34 124.434 1479.6 120.708 1473.89 115.678L1452.92 97.2272C1404.45 54.5675 1336.79 41.2542 1275.77 62.3699L1175.33 97.1278C1100.97 122.862 1020.24 123.651 945.384 99.3743L894.737 82.9488C813.761 56.6869 727.581 50.6795 643.744 65.4525L539.062 83.8987C469.836 96.0971 398.642 90.4055 332.234 67.364L161.703 8.19517C111.409 -9.25508 55.5562 4.54377 19.1753 43.4075L-1.23969 65.2158C-10.7219 75.3451 -16.1419 88.6116 -16.465 102.483V102.483C-17.1912 133.654 7.48931 159.512 38.6605 160.238L1498.51 194.248C1516.34 194.663 1531.14 180.543 1531.55 162.709V162.709Z" fill="url(#paint0_linear_2006_707)" fill-opacity="0.2"/>
</g>
<defs>
<filter id="filter0_i_2006_707" x="-16.4805" y="0.746155" width="1548.04" height="197.51" filterUnits="userSpaceOnUse" color-interpolation-filters="sRGB">
<feFlood flood-opacity="0" result="BackgroundImageFix"/>
<feBlend mode="normal" in="SourceGraphic" in2="BackgroundImageFix" result="shape"/>
<feColorMatrix in="SourceAlpha" type="matrix" values="0 0 0 0 0 0 0 0 0 0 0 0 0 0 0 0 0 0 127 0" result="hardAlpha"/>
<feOffset dy="4"/>
<feGaussianBlur stdDeviation="20"/>
<feComposite in2="hardAlpha" operator="arithmetic" k2="-1" k3="1"/>
<feColorMatrix type="matrix" values="0 0 0 0 1 0 0 0 0 1 0 0 0 0 1 0 0 0 0.8 0"/>
<feBlend mode="normal" in2="shape" result="effect1_innerShadow_2006_707"/>
</filter>
<linearGradient id="paint0_linear_2006_707" x1="766.322" y1="50.067" x2="766.322" y2="354.517" gradientUnits="userSpaceOnUse">
<stop stop-color="#003B98"/>
<stop offset="1" stop-color="#4D3EDB"/>
</linearGradient>
</defs>
</svg>
