<svg width="26" height="26" viewBox="0 0 26 26" fill="none" xmlns="http://www.w3.org/2000/svg">
<path d="M7.91743 5C8.63903 5 9.30511 5.05654 9.91569 5.22615C10.5263 5.33922 11.0258 5.56537 11.4699 5.84806C11.914 6.13074 12.247 6.5265 12.469 7.03534C12.6911 7.54417 12.8021 8.16608 12.8021 8.84452C12.8021 9.63604 12.6355 10.3145 12.247 10.8233C11.914 11.3322 11.3589 11.7845 10.6928 12.1237C11.6364 12.4064 12.358 12.9152 12.8021 13.5936C13.2461 14.2721 13.5237 15.1201 13.5237 16.0813C13.5237 16.8728 13.3571 17.5512 13.0796 18.1166C12.8021 18.682 12.358 19.1908 11.8584 19.53C11.3589 19.8693 10.7483 20.1519 10.0822 20.3216C9.41613 20.4912 8.75004 20.6042 8.08396 20.6042H0.645996V5H7.91743ZM7.47338 11.3322C8.08396 11.3322 8.58352 11.1625 8.97207 10.8799C9.36062 10.5972 9.52714 10.0883 9.52714 9.46643C9.52714 9.12721 9.47164 8.78799 9.36062 8.56184C9.24961 8.33569 9.08309 8.16608 8.86106 7.99647C8.63903 7.88339 8.417 7.77032 8.13946 7.71378C7.86193 7.65724 7.58439 7.65724 7.25135 7.65724H4.03193V11.3322H7.47338ZM7.6399 18.0035C7.97294 18.0035 8.30598 17.947 8.58352 17.8905C8.86106 17.8339 9.13859 17.7208 9.36062 17.5512C9.58265 17.3816 9.74917 17.212 9.91569 16.9293C10.0267 16.6466 10.1377 16.3074 10.1377 15.9117C10.1377 15.1201 9.91569 14.5548 9.47164 14.159C9.02758 13.8198 8.417 13.6502 7.69541 13.6502H4.03193V18.0035H7.6399ZM18.3528 17.947C18.7968 18.3993 19.4629 18.6254 20.351 18.6254C20.9616 18.6254 21.5167 18.4558 21.9607 18.1731C22.4048 17.8339 22.6823 17.4947 22.7934 17.1555H25.5132C25.0691 18.5124 24.4031 19.4735 23.5149 20.0954C22.6268 20.6608 21.5722 21 20.2955 21C19.4074 21 18.6303 20.8304 17.9087 20.5477C17.1871 20.265 16.6321 19.8693 16.1325 19.3039C15.6329 18.7951 15.2444 18.1731 15.0224 17.4382C14.7448 16.7032 14.6338 15.9117 14.6338 15.0071C14.6338 14.159 14.7448 13.3675 15.0224 12.6325C15.2999 11.8975 15.6884 11.2756 16.188 10.7102C16.6876 10.2014 17.2981 9.74912 17.9642 9.46643C18.6858 9.18375 19.4074 9.01413 20.2955 9.01413C21.2392 9.01413 22.0718 9.18375 22.7934 9.57951C23.5149 9.97527 24.07 10.4276 24.5141 11.106C24.9581 11.7279 25.2912 12.4629 25.5132 13.2544C25.6242 14.0459 25.6797 14.8375 25.6242 15.742H17.5757C17.5757 16.6466 17.9087 17.4947 18.3528 17.947ZM21.8497 12.0106C21.4612 11.6148 20.8506 11.3887 20.129 11.3887C19.6294 11.3887 19.2409 11.5018 18.9079 11.6714C18.5748 11.841 18.3528 12.0671 18.1308 12.2933C17.9087 12.5194 17.7977 12.8021 17.7422 13.0848C17.6867 13.3675 17.6312 13.5936 17.6312 13.8198H22.6268C22.5158 12.9717 22.2383 12.4064 21.8497 12.0106ZM16.9651 6.0742H23.1819V7.60071H16.9651V6.0742Z" fill="currentColor"/>
</svg>
