<svg width="18" height="18" viewBox="0 0 18 18" fill="none" xmlns="http://www.w3.org/2000/svg">
<path opacity="0.4" d="M10.7469 10.0586H7.78221C7.57764 10.0586 7.41162 10.2365 7.41162 10.4557V17.6027C7.41162 17.8219 7.57764 17.9998 7.78221 17.9998H10.7469C10.9515 17.9998 11.1175 17.8219 11.1175 17.6027V10.4557C11.1175 10.2365 10.9515 10.0586 10.7469 10.0586Z" fill="white"/>
<path opacity="0.3" d="M3.33529 14.2939H0.370588C0.166024 14.2939 0 14.46 0 14.6645V17.6292C0 17.8338 0.166024 17.9998 0.370588 17.9998H3.33529C3.53986 17.9998 3.70588 17.8338 3.70588 17.6292V14.6645C3.70588 14.46 3.53986 14.2939 3.33529 14.2939Z" fill="white"/>
<path opacity="0.7" d="M17.6292 6.35303H14.6645C14.46 6.35303 14.2939 6.52696 14.2939 6.74126V17.6118C14.2939 17.8262 14.46 18.0001 14.6645 18.0001H17.6292C17.8338 18.0001 17.9998 17.8262 17.9998 17.6118V6.74126C17.9998 6.52696 17.8338 6.35303 17.6292 6.35303Z" fill="white"/>
<path d="M9.21142 6.10499L14.0384 1.32695V3.8868C14.0384 4.10135 14.2143 4.27548 14.431 4.27548C14.6478 4.27548 14.8237 4.10135 14.8237 3.8868V0.38868C14.8237 0.174129 14.6478 0 14.431 0H10.8971C10.6804 0 10.5044 0.174129 10.5044 0.38868C10.5044 0.603231 10.6804 0.77736 10.8971 0.77736H13.4831L8.93382 5.2806L6.07017 2.44596C5.91664 2.29399 5.66848 2.29399 5.51495 2.44596L1.58838 6.33276L2.1436 6.88235L5.79256 3.27035L8.65621 6.10499C8.80974 6.25697 9.0579 6.25697 9.21142 6.10499Z" fill="white"/>
</svg>
