<svg width="25" height="26" viewBox="0 0 25 26" fill="none" xmlns="http://www.w3.org/2000/svg">
<path d="M13.6114 21C5.06993 21 0.1998 15.0048 0 5.01281H4.2957C4.43307 12.3403 7.57992 15.4404 10.0774 16.0809V5.01281H14.1109V11.3283C16.5709 11.0592 19.1683 8.17694 20.0425 5H24.0634C23.7356 6.64454 23.0806 8.20205 22.1396 9.57522C21.1985 10.9484 19.9914 12.1077 18.5939 12.9808C20.1535 13.7771 21.5308 14.9035 22.6351 16.2858C23.7393 17.6681 24.5453 19.2748 25 21H20.5669C19.6179 17.964 17.2453 15.6069 14.1109 15.2866V21H13.6239H13.6114Z" fill="white"/>
</svg>
