<svg width="17" height="16" viewBox="0 0 17 16" fill="none" xmlns="http://www.w3.org/2000/svg">
<path d="M15.18 12.2203C15.18 12.4603 15.1267 12.707 15.0134 12.947C14.9 13.187 14.7534 13.4137 14.56 13.627C14.2334 13.987 13.8734 14.247 13.4667 14.4137C13.0667 14.5803 12.6334 14.667 12.1667 14.667C11.4867 14.667 10.76 14.507 9.99337 14.1803C9.2267 13.8537 8.46003 13.4137 7.70003 12.8603C6.93337 12.3003 6.2067 11.6803 5.51337 10.9937C4.8267 10.3003 4.2067 9.57366 3.65337 8.81366C3.1067 8.05366 2.6667 7.29366 2.3467 6.54033C2.0267 5.78033 1.8667 5.05366 1.8667 4.36033C1.8667 3.907 1.9467 3.47366 2.1067 3.07366C2.2667 2.667 2.52003 2.29366 2.87337 1.96033C3.30003 1.54033 3.7667 1.33366 4.26003 1.33366C4.4467 1.33366 4.63337 1.37366 4.80003 1.45366C4.97337 1.53366 5.1267 1.65366 5.2467 1.827L6.79337 4.007C6.91337 4.17366 7.00003 4.327 7.06003 4.47366C7.12003 4.61366 7.15337 4.75366 7.15337 4.88033C7.15337 5.04033 7.1067 5.20033 7.01337 5.35366C6.9267 5.507 6.80003 5.667 6.64003 5.827L6.13337 6.35366C6.06003 6.427 6.0267 6.51366 6.0267 6.62033C6.0267 6.67366 6.03337 6.72033 6.0467 6.77366C6.0667 6.827 6.0867 6.867 6.10003 6.907C6.22003 7.127 6.4267 7.41366 6.72003 7.76033C7.02003 8.107 7.34003 8.46033 7.6867 8.81366C8.0467 9.167 8.39337 9.49366 8.7467 9.79366C9.09337 10.087 9.38003 10.287 9.6067 10.407C9.64003 10.4203 9.68003 10.4403 9.7267 10.4603C9.78003 10.4803 9.83337 10.487 9.89337 10.487C10.0067 10.487 10.0934 10.447 10.1667 10.3737L10.6734 9.87366C10.84 9.707 11 9.58033 11.1534 9.50033C11.3067 9.407 11.46 9.36033 11.6267 9.36033C11.7534 9.36033 11.8867 9.387 12.0334 9.447C12.18 9.507 12.3334 9.59366 12.5 9.707L14.7067 11.2737C14.88 11.3937 15 11.5337 15.0734 11.7003C15.14 11.867 15.18 12.0337 15.18 12.2203Z" fill="#4D3EDB"/>
</svg>
