<svg width="17" height="16" viewBox="0 0 17 16" fill="none" xmlns="http://www.w3.org/2000/svg">
<path d="M11.8672 2.33333H5.20052C3.20052 2.33333 1.86719 3.33333 1.86719 5.66666V10.3333C1.86719 12.6667 3.20052 13.6667 5.20052 13.6667H11.8672C13.8672 13.6667 15.2005 12.6667 15.2005 10.3333V5.66666C15.2005 3.33333 13.8672 2.33333 11.8672 2.33333ZM12.1805 6.39333L10.0939 8.06C9.65385 8.41333 9.09385 8.58666 8.53385 8.58666C7.97385 8.58666 7.40719 8.41333 6.97385 8.06L4.88719 6.39333C4.67385 6.22 4.64052 5.89999 4.80719 5.68666C4.98052 5.47333 5.29385 5.43333 5.50719 5.60666L7.59385 7.27333C8.10052 7.68 8.96052 7.68 9.46719 7.27333L11.5539 5.60666C11.7672 5.43333 12.0872 5.46666 12.2539 5.68666C12.4272 5.89999 12.3939 6.22 12.1805 6.39333Z" fill="#4D3EDB"/>
</svg>
