<svg width="25" height="26" viewBox="0 0 25 26" fill="none" xmlns="http://www.w3.org/2000/svg">
<path d="M13.4165 5.5C8.99998 5.5 5.4165 9.08348 5.4165 13.5C5.4165 15.2685 5.98893 16.8973 6.95693 18.2237L5.93774 21.2394L9.11633 20.2481C10.3589 21.0393 11.8342 21.5 13.4165 21.5C17.833 21.5 21.4165 17.9165 21.4165 13.5C21.4165 9.08348 17.833 5.5 13.4165 5.5ZM17.0791 17.7909C15.6271 18.3726 13.8959 17.8095 12.0017 16.3714C10.1076 14.9334 8.86037 12.909 8.7766 11.4058C8.69283 9.90256 9.9168 9.14398 10.5823 9.14863C11.2478 9.15329 11.9785 11.2801 11.9878 11.6059C11.9971 11.9363 11.1733 12.5227 11.1408 12.8019C11.1082 13.0812 12.2623 14.4587 12.751 14.831C13.235 15.1987 14.2356 15.9061 14.7522 15.8409C15.2641 15.7711 15.6038 14.7426 15.9296 14.6774C16.2554 14.6123 18.0331 15.4965 18.21 15.7245C18.3868 15.9572 18.3682 17.2789 17.0791 17.7909Z" fill="white"/>
</svg>
