<svg width="24" height="24" viewBox="0 0 24 24" fill="none" xmlns="http://www.w3.org/2000/svg">
<path d="M13.0898 2.78081L4.60376 7.90289L17.9152 9.07261L15.3715 3.48711C14.9751 2.61678 13.9086 2.28662 13.0898 2.78081Z" fill="white"/>
<path d="M2.55022 18.9193C2.8181 20.4405 4.03467 21.6629 5.56183 21.8946C7.07821 22.1247 8.4475 22.3506 10.5505 22.3506C12.6536 22.3506 14.0229 22.1247 15.5392 21.8946C17.0664 21.6629 18.283 20.4405 18.5508 18.9193C18.7575 17.7456 18.946 16.7263 18.946 14.7546C18.946 12.7829 18.7575 11.7637 18.5508 10.59C18.283 9.06874 17.0664 7.84635 15.5392 7.61466C14.0229 7.38459 12.6536 7.15869 10.5505 7.15869C8.4475 7.15869 7.07821 7.38459 5.56183 7.61466C4.03467 7.84635 2.8181 9.06874 2.55022 10.59C2.34354 11.7637 2.15503 12.7829 2.15503 14.7546C2.15503 16.7263 2.34354 17.7456 2.55022 18.9193Z" fill="#F8F8F8" stroke="#141C24" stroke-width="2.475"/>
<path d="M19.2949 17.0733H14.5484C13.2236 17.0733 12.1497 15.9994 12.1497 14.6746C12.1497 13.3498 13.2236 12.2759 14.5484 12.2759H19.2949C20.2062 12.2759 20.9449 13.0146 20.9449 13.9259V15.4233C20.9449 16.3346 20.2062 17.0733 19.2949 17.0733Z" fill="white" stroke="#141C24" stroke-width="2.475" stroke-linecap="round"/>
<path d="M4.60376 7.90289L13.0898 2.78081C13.9086 2.28662 14.9751 2.61678 15.3715 3.48711L17.9152 9.07261" stroke="#141C24" stroke-width="2.475" stroke-linecap="round"/>
</svg>
