<svg width="25" height="26" viewBox="0 0 25 26" fill="none" xmlns="http://www.w3.org/2000/svg">
<path d="M4.43709 12.388C9.61963 10.13 13.0755 8.64143 14.8046 7.92222C19.7417 5.86873 20.7675 5.51202 21.4362 5.50011C21.5832 5.49765 21.9121 5.5341 22.1251 5.70693C22.3049 5.85287 22.3544 6.05001 22.3781 6.18837C22.4018 6.32673 22.4312 6.64193 22.4078 6.88822C22.1403 9.69928 20.9826 16.521 20.3937 19.6694C20.1445 21.0017 19.6538 21.4484 19.1787 21.4921C18.1464 21.5871 17.3624 20.8098 16.3625 20.1543C14.7978 19.1287 13.9139 18.4902 12.3951 17.4894C10.6399 16.3327 11.7778 15.697 12.778 14.658C13.0398 14.3861 17.5885 10.2488 17.6766 9.87343C17.6876 9.82649 17.6978 9.65151 17.5938 9.55912C17.4899 9.46673 17.3365 9.49833 17.2258 9.52345C17.0688 9.55907 14.5693 11.2112 9.72704 14.4798C9.01755 14.967 8.37491 15.2044 7.79913 15.192C7.16437 15.1782 5.94336 14.8331 5.03567 14.538C3.92234 14.1761 3.03749 13.9848 3.11454 13.3701C3.15467 13.05 3.59552 12.7226 4.43709 12.388Z" fill="currentColor"/>
</svg>
