<svg width="17" height="16" viewBox="0 0 17 16" fill="none" xmlns="http://www.w3.org/2000/svg">
<path d="M14.2809 5.63464C13.5809 2.55464 10.8942 1.16797 8.53424 1.16797C8.53424 1.16797 8.53424 1.16797 8.52758 1.16797C6.17424 1.16797 3.48091 2.54797 2.78091 5.62797C2.00091 9.06797 4.10758 11.9813 6.01424 13.8146C6.72091 14.4946 7.62758 14.8346 8.53424 14.8346C9.44091 14.8346 10.3476 14.4946 11.0476 13.8146C12.9542 11.9813 15.0609 9.07464 14.2809 5.63464ZM8.53424 8.97464C7.37424 8.97464 6.43424 8.03464 6.43424 6.87464C6.43424 5.71464 7.37424 4.77464 8.53424 4.77464C9.69424 4.77464 10.6342 5.71464 10.6342 6.87464C10.6342 8.03464 9.69424 8.97464 8.53424 8.97464Z" fill="#4D3EDB"/>
</svg>
